<svg xmlns="http://www.w3.org/2000/svg" height="80" viewBox="0 0 118.925373 80" width="118.925373">
    <script xmlns="" />
    <g fill="none" fill-rule="evenodd">
        <g fill="#8fd299" fill-rule="nonzero" transform="translate(0 8.8347)">
            <path d="m10.0298507 8.83472963 3.5820896-3.89946687-.5014925-4.93526276-3.58208959 3.89946687z" />
            <path
                d="m5.87462687 14.5011424 1.5761194-4.3869002-2.4358209-2.68088348c-.71641791 1.34044174-1.28955224 2.68088348-1.86268656 4.08225438z" />
            <path
                d="m11.6059701 11.2109673-1.5761194 4.3869002 3.438806-1.0357959c.4298508-1.5232293 1.0746269-2.9855293 1.719403-4.4478294z" />
            <path
                d="m3.65373134 23.8842346.71641791-4.5087586-3.00895522-2.4371668c-.35820896 1.4013709-.64477612 2.9246002-.85970149 4.4478294z" />
            <path
                d="m8.66865672 19.8019802-.71641791 4.5087586 3.94029849-1.8278751c.1432836-1.5232293.358209-3.0464585.6447761-4.5087586z" />
            <path
                d="m3.79701493 28.0274181-3.72537314-2.1934501c0 .6092917-.07164179 1.1576542-.07164179 1.7060168 0 .9139375.07164179 1.9497334.14328358 2.863671l3.72537314 2.1934501z" />
            <path
                d="m8.23880597 27.966489.07164179 4.5696877 3.94029854-2.4371668c-.2149254-1.4013709-.358209-2.9246002-.358209-4.3869002z" />
            <path
                d="m6.16119403 41.3099772-1.07462687-4.5087586-4.37014925-1.6450876c.28656716 1.5232292.64477612 2.9855293 1.07462687 4.5087586z" />
            <path
                d="m9.31343284 36.0700685 1.07462686 4.5087586 3.5104478-3.2901752c-.5014926-1.4013709-.9313433-2.8636709-1.2895523-4.325971z" />
            <path
                d="m10.6746269 49.3526276-2.22089556-4.2041127-5.01492537-.9139376c.57313433 1.4013709 1.21791045 2.8027418 1.93432836 4.1431836z" />
            <path
                d="m12.4656716 43.6862148 2.2208956 4.2041127 2.5791044-3.8385377c-.7880597-1.3404417-1.5761194-2.6808835-2.2208955-4.1431836z" />
            <path
                d="m16.9791045 56.7859863-3.080597-3.7166794-5.73134332-.1218583c.85970149 1.2795126 1.86268652 2.5590251 2.86567162 3.7166794z" />
            <path
                d="m17.480597 50.936786 3.080597 3.7166793 1.719403-4.1431835c-1.0746269-1.1576542-2.1492537-2.4371668-3.1522388-3.7166794z" />
            <path
                d="m18.9134328 64.4630617 6.2328359-1.0967251-3.9402986-3.1073876-5.9462686 1.0357959c1.2179104 1.096725 2.4358209 2.1325209 3.6537313 3.1683168z" />
            <path
                d="m24.8597015 53.0693069-.6447761 4.5087586 3.9402985 3.1073877.6447761-4.3869003c-1.4328358-1.096725-2.6507463-2.1325209-3.9402985-3.229246z" />
            <path
                d="m30.6626866 66.5346535-5.2298508 2.3762376c1.0746269.6702209 2.077612 1.2185834 3.1522388 1.7669459l1.1462687.4874334 5.7313433-2.6199543z" />
            <path
                d="m32.5253731 63.1835491 4.8716418 2.0106626-.9313433-4.5087585c-1.7194029-.7920792-3.3671641-1.7060168-5.0149253-2.6808835z" />
            <path d="m109.468657 3.89946687-3.58209-3.89946687-.501492 4.93526276 3.510447 3.89946687z" />
            <path
                d="m111.61791 10.1142422 1.57612 4.3869002 2.722388-2.9855293c-.501493-1.4013709-1.146269-2.74181264-1.862687-4.08225438z" />
            <path
                d="m108.895522 15.5978675-1.576119-4.3869002-3.725373-1.0967251c.716418 1.4013709 1.289552 2.9246001 1.719403 4.4478294z" />
            <path
                d="m118.423881 21.3252094c-.214926-1.4623-.501493-2.9246001-.859702-4.4478294l-3.008955 2.4371668.716418 4.5087586z" />
            <path
                d="m110.973134 24.3716679-.716418-4.5087585-3.868656-1.766946c.286567 1.4623001.501492 2.9855294.644776 4.5087586z" />
            <path
                d="m115.056716 32.5971059 3.725374-2.1934501c.071641-.9139376.143283-1.8888043.143283-2.863671 0-.6092917 0-1.1576543-.071642-1.7060168l-3.725373 2.1934501z" />
            <path
                d="m110.686567 32.5971059.071642-4.5696878-3.653731-2.2543793c0 1.4623001-.143284 2.9246002-.358209 4.3869003z" />
            <path
                d="m113.910448 36.8621478-1.074627 4.5087585 4.370149-1.6450876c.429851-1.4623.78806-2.9246001 1.074627-4.5087585z" />
            <path
                d="m108.537313 40.5788271 1.074627-4.5087586-3.367164-3.0464584c-.358209 1.4623-.78806 2.9246001-1.289552 4.325971z" />
            <path
                d="m110.471642 45.209444-2.220896 4.2041127 5.301493-.9139375c.78806-1.3404417 1.361194-2.7418127 1.934328-4.1431836z" />
            <path
                d="m104.310448 47.8903275 2.220895-4.2041127-2.579104-3.7776086c-.644776 1.401371-1.361194 2.8027419-2.220896 4.1431836z" />
            <path
                d="m105.026866 53.0693069-3.080597 3.7166794 5.946268-.1218583c1.074627-1.2185834 1.934329-2.4371668 2.865672-3.7166794z" />
            <path
                d="m98.3641791 54.6534653 3.0805969-3.7166793-1.6477611-4.0822544c-.9313433 1.2795126-1.9343283 2.498096-3.1522388 3.7166794z" />
            <path
                d="m103.737313 61.2947449-5.9462682-1.0357959-3.9402985 3.1073876 6.2328357 1.0967251c1.217911-1.0357959 2.435821-2.0715918 3.653731-3.1683168z" />
            <path
                d="m90.1253731 56.2376238.6447762 4.3869002 3.9402985-3.1073877-.6447762-4.5087585c-1.2179104 1.1576542-2.5074626 2.1934501-3.9402985 3.229246z" />
            <path
                d="m88.3343284 66.5346535-4.8716418 2.0106626 5.7313433 2.6199543 1.1462686-.4874334c1.0746269-.5483625 2.1492537-1.1576542 3.1522388-1.7669459z" />
            <path
                d="m81.6 65.1942117 4.8716418-2.0106626 1.0746269-5.1789794c-1.5761194.9748667-3.2238806 1.8888043-5.0149254 2.6808835z" />
        </g>
        <path d="m22.065672 40.030465h75.22388" opacity=".75" stroke="#8fd299" stroke-width="2.3" />
        <g opacity=".75" stroke="#8fd299" stroke-linecap="round" transform="translate(6.0179 19.6192)">
            <path
                d="m3.51044776 0c-2.29253731 4.99619193-3.51044776 10.3579589-3.51044776 16.0243717 0 19.4973343 14.9731343 36.0700685 35.7492537 41.6755521" />
            <path
                d="m103.450746 0c2.292538 4.99619193 3.510448 10.3579589 3.510448 16.0243717 0 19.4973343-14.9731343 36.0700685-35.7492537 41.6755521" />
        </g>
        <g fill="#8fd299" fill-rule="nonzero">
            <g>
                <g transform="translate(35.8209)">
                    <path
                        d="m22.7104478 2.98552932 8.7402985 7.37242958-2.9373135 2.4371668 1.719403 1.4623 4.8-3.8994668-12.322388-10.3579589-4.7283582 3.96039604 1.7910447 1.52322925z" />
                    <path
                        d="m28.5134328 3.96039604 1.719403 1.52322925 3.0089552-2.49809597 8.7402986 7.37242958-8.7402986 7.2505712-8.7402985-7.2505712 2.9373135-2.55902516-1.7910448-1.46230008-2.9373134 2.49809597-10.4597015-8.83472963-12.2507463 10.3579589 12.2507463 10.2970297 4.7283582-4.0213252-1.7910448-1.4623001-2.9373134 2.4371668-8.74029854-7.2505712 8.74029854-7.37242958 8.7402985 7.37242958-3.0089552 2.4371668 1.7910447 1.4623 2.9373135-2.4371668 10.5313432 8.8347297 12.2507463-10.2970297-12.2507463-10.3579589z"
                        opacity=".75" />
                    <path
                        d="m22.7104478 17.6085301-8.7402985-7.2505712 3.0089552-2.55902516-1.7910448-1.46230008-4.7283582 4.02132524 12.2507463 10.2970297 4.7283582-4.0213252-1.7910448-1.4623001z" />
                </g>
                <g transform="translate(29.4448 23.5187)">
                    <path
                        d="m40.2626866.91393755h-1.719403v1.58415841h-1.2179105v1.34044174h1.1462687v2.80274181c0 1.52322925.5731343 2.25437929 2.6507463 2.25437929h.7880597v-1.52322925h-.6447762c-.8597015 0-1.002985-.30464585-1.002985-.91393755v-2.68088347h1.8626865v-1.34044174h-1.8626865z" />
                    <path d="m44.059702 0h1.862687v1.4623h-1.862687z" />
                    <path d="m43.701493 2.498096h1.862687v6.397563h-1.862687z" />
                    <path
                        d="m51.2238806 5.0571211c-1.9343284-.48743336-2.2925373-.6092917-2.2925373-.91393755s.4298507-.6092917 1.1462686-.6092917c1.0029851 0 1.3611941.42650419 1.6477612.97486672l1.5761194-.36557502c-.3582089-1.09672506-1.361194-1.88880427-3.1522388-1.88880427-1.7910447 0-2.8656716.97486672-2.8656716 1.94973344s.8597015 1.46230008 2.5791045 1.88880426c1.5761194.36557502 2.0059701.42650419 2.0059701.91393755s-.5731343.67022087-1.5044776.67022087c-1.0029851 0-1.5761194-.48743336-1.6477612-1.34044174l-1.6477612.36557502c.1432836 1.09672506 1.1462687 2.31530846 3.438806 2.31530846 2.1492537 0 3.080597-1.09672506 3.080597-2.01066261-.1432836-.85300838-.5014925-1.46230007-2.3641791-1.94973343z" />
                    <path
                        d="m57.8865672 2.25437928c-1.9343284 0-3.438806 1.34044174-3.438806 3.41203352 0 2.07159177 1.5044776 3.41203351 3.5820895 3.41203351 1.5761194 0 2.5074627-.67022087 3.1522389-1.40137091l-1.2895523-.97486672c-.3582089.42650419-.8597015.97486672-1.8626866.97486672-1.002985 0-1.6477611-.54836253-1.6477611-1.52322925h5.0149253v-.48743335c-.0716418-2.13252095-1.5761194-3.41203352-3.5104477-3.41203352zm-1.6477612 2.68088348c.0716418-.67022087.7164179-1.34044174 1.6477612-1.34044174 1.002985 0 1.5761194.48743336 1.6477612 1.34044174z" />
                    <path
                        d="m0 8.8956588h6.23283582v-1.52322925h-4.37014925v-2.07159177h4.0119403v-1.52322925h-4.0119403v-1.8278751h4.37014925v-1.52322924h-6.23283582z" />
                    <path
                        d="m14.6149254 2.49809596h-1.9343284l-1.6477612 2.07159178h-.0716418l-1.64776116-2.07159178h-1.93432836l2.50746268 3.10738767-2.65074626 3.29017517h2.00597014l1.71940296-2.31530846h.0716418l1.7910448 2.31530846h2.0059701l-2.6507462-3.29017517z" />
                    <path
                        d="m19.6298507 2.25437928c-1.5044776 0-2.0059701.79207921-2.0059701.79207921v-.67022087h-1.719403v9.13937548h1.8626866v-3.35110434s.5014925.79207921 1.9343283.79207921c1.719403 0 3.2955224-1.15765423 3.2955224-3.41203351 0-2.07159178-1.6477612-3.29017518-3.3671642-3.29017518zm-.2865671 5.36176695c-1.0746269 0-1.7910448-.67022087-1.7910448-1.94973343 0-1.27951257.7880597-1.94973344 1.7910448-1.94973344s1.7910448.67022087 1.7910448 1.94973344c0 1.27951256-.7880597 1.94973343-1.7910448 1.94973343z" />
                    <path
                        d="m27.438806 2.25437928c-1.9343284 0-3.438806 1.34044174-3.438806 3.41203352 0 2.07159177 1.5044776 3.41203351 3.5820896 3.41203351 1.5761194 0 2.5074626-.67022087 3.1522388-1.40137091l-1.2895523-.97486672c-.3582089.42650419-.8597015.97486672-1.8626865.97486672-1.0029851 0-1.6477612-.54836253-1.6477612-1.52322925h5.0149253v-.48743335c-.1432836-2.13252095-1.6477612-3.41203352-3.5104477-3.41203352zm-1.6477612 2.68088348c.0716418-.67022087.7164179-1.34044174 1.6477612-1.34044174 1.002985 0 1.5761194.48743336 1.6477612 1.34044174z" />
                    <path
                        d="m35.3910448 2.31530845c-.7164179 0-1.2895523.36557502-1.5761194.79207921v-.67022087h-1.719403v6.39756284h1.8626866v-3.47296268c0-1.03579589.5014925-1.46230008 1.2895522-1.46230008.1432836 0 .4298507.06092917.5731343.12185834l.2865672-1.52322925c-.2149254-.12185834-.4298508-.18278751-.7164179-.18278751z" />
                </g>
            </g>
            <g transform="translate(29.873 45.1316)">
                <path
                    d="m5.27938433 4.83030274v-4.76485148h1.83162313c.60797575 0 1.06524021.10690372 1.37179338.32071115.30655317.21380744.45982976.53015518.45982976.94904323 0 .22253427-.07439366.41943347-.22318097.59069759-.14878732.17126412-.3514459.30380291-.60797575.39761638.30270522.07199638.54191931.2088986.71764226.41070664s.26358442.44234141.26358442.7216001c0 .42761488-.16289646.763598-.48868937 1.00794935-.32579291.24435136-.78626399.36652704-1.38141324.36652704zm.73880597-2.22861529v1.71482293h1.21979944c.34375 0 .61503032-.07581438.81384095-.22744312s.29821595-.36052734.29821595-.62669578c0-.57378935-.36683768-.86068403-1.10051306-.86068403zm0-.50397467h1.11590485c.32322761 0 .58168144-.06872382.77536147-.20617146.19368004-.13744764.29052006-.32398372.29052006-.55960825 0-.26180502-.08978545-.45215909-.26935634-.57106221-.1795709-.11890312-.45277519-.17835468-.81961288-.17835468h-1.09281716z" />
                <path
                    d="m11.8016558 4.895754c-.5643657 0-1.0235541-.15762844-1.3775653-.47288533s-.53101681-.73687207-.53101681-1.26484554v-.11126713c0-.35125508.07888293-.66487568.23664881-.94086182.1577658-.27598613.3783815-.49197528.661847-.64796744s.59066-.23398824.9215835-.23398824c.541278 0 .9619869.15162874 1.2621269.45488623.3001399.30325749.4502098.7374175.4502098 1.30248001v.25198734h-2.8205457c.0102612.34907337.1301889.6310592.3597831.84595749.2295943.21489829.521397.32234744.8754082.32234744.2513992 0 .464319-.04363417.6387593-.13090251s.3270755-.2028989.4579058-.34689166l.4348181.28798553c-.3488806.45597708-.8722015.68396563-1.5699627.68396563zm-.0885028-3.17438595c-.2873134 0-.5284515.08890462-.7234142.26671387s-.3155317.42706945-.3617071.74778061h2.0855877v-.04581588c-.0205224-.30762091-.1180037-.54597257-.292444-.71505498s-.4104478-.25362362-.7080224-.25362362z" />
                <path
                    d="m16.6731576 3.89107721c0-.16362814-.0724696-.29071267-.217409-.38125357-.1449394-.09054091-.3976213-.16853699-.7580457-.23398824-.3604244-.06545126-.6464552-.14399277-.8580924-.23562453-.2116371-.09163176-.3681203-.20071719-.4694496-.32725628-.1013293-.1265391-.1519939-.27707699-.1519939-.45161367 0-.29016724.144298-.53560945.4328941-.73632664s.6573577-.30107578 1.106285-.30107578c.4720149 0 .8548857.10363116 1.1486124.31089347s.44059.4723399.44059.79523277h-.7157183c0-.16580985-.0827309-.30871176-.2481926-.42870573-.1654618-.11999397-.3738923-.17999096-.6252915-.17999096-.2590952 0-.4617537.04799759-.6079758.14399276-.146222.09599518-.219333.22144342-.219333.37634473 0 .14617447.0679804.25635076.2039412.33052885.1359609.07417809.3815882.14508362.736882.21271658.3552939.06763297.6432486.14835618.8638643.24216965s.3841535.20671689.4906134.33871025c.1064598.13199337.1596898.29289438.1596898.48270302 0 .31634774-.1487873.56997136-.446362.76087086-.2975746.1908995-.683652.28634925-1.1582322.28634925-.3334888 0-.6284982-.0501793-.885028-.15053789-.2565299-.1003586-.4572645-.24053337-.6022038-.42052433-.1449394-.17999095-.2174091-.37470844-.2174091-.58415246h.7118703c.0128265.20289889.1083839.3637999.2866722.48270302.1782882.11890311.4136543.17835467.7060984.17835467.2693563 0 .4854827-.04636131.6483792-.13908392.1628964-.09272261.2443446-.21653457.2443446-.37143588z" />
                <path
                    d="m19.2782183.43197829v.85741147h.7772854v.46797648h-.7772854v2.19588966c0 .14181106.0346315.24816935.1038946.31907488.069263.07090553.1872668.10635829.3540112.10635829.0820895 0 .1949627-.01309025.3386194-.03927075v.49088442c-.1872668.04363417-.369403.06545126-.5464086.06545126-.318097 0-.5579524-.08181407-.7195662-.24544221-.1616138-.16362815-.2424208-.39598011-.2424208-.69705589v-2.19588966h-.7580457v-.46797648h.7580457v-.85741147z" />
                <path
                    d="m26.0390625 2.72604484h-2.3510961v2.1042579h-.738806v-4.76485148h3.4708489v.51706492h-2.7320429v1.6297363h2.3510961z" />
                <path
                    d="m28.2409999 4.83030274h-.9654272v-3.54091298h.9654272zm-1.0437051-4.48013852c0-.09817688.0478365-.18108181.1435094-.24871477.095673-.06763297.237443-.10144945.4253099-.10144945s.3305066.03381648.4279191.10144945c.0974125.06763296.1461187.15053789.1461187.24871477 0 .09817689-.0487062.17999096-.1461187.24544222-.0974125.06545125-.2400522.09817688-.4279191.09817688s-.3296369-.03272563-.4253099-.09817688c-.0956729-.06545126-.1435094-.14726533-.1435094-.24544222z" />
                <path
                    d="m29.7792677 1.28938976.0230877.44506854c.318097-.34034653.7336754-.5105198 1.2467351-.5105198.8798974 0 1.323694.42216061 1.3313899 1.26648182v2.33988242h-.7118703v-2.34315499c-.0025653-.2552599-.0711871-.44397769-.2058652-.56615337-.1346782-.12217568-.3443914-.18326352-.6291395-.18326352-.2308769 0-.4335354.05236101-.6079757.15708302s-.3104012.24216965-.4078825.41234292v2.52314594h-.7118703v-3.54091298z" />
                <path
                    d="m36.0244869 4.83030274c-.0410447-.06981467-.0743936-.19417206-.1000466-.37307216-.3309235.29234895-.7259795.43852342-1.1851679.43852342-.4104478 0-.7471432-.09872231-1.0100863-.29616694-.2629431-.19744462-.3944146-.44779568-.3944146-.75105317 0-.36870874.1648204-.65505799.4944612-.85904774.3296409-.20398975.7933186-.30598463 1.3910332-.30598463h.6926306v-.27816784c0-.21162573-.0743937-.38016271-.223181-.50561096-.1487873-.12544824-.3681204-.18817236-.6579991-.18817236-.2539645 0-.4668843.05454272-.6387593.16362814-.171875.10908543-.2578125.2410788-.2578125.39598011h-.7157183c0-.1767184.0737523-.34743709.221257-.51215609.1475047-.16471899.3475979-.29507608.6002799-.39107126.2526819-.09599517.5303754-.14399276.8330806-.14399276.4797109 0 .8555271.10199487 1.1274487.30598462.2719217.20398975.4130131.48488473.4232743.84268493v1.6297363c0 .32507457.0487407.58360703.146222.77559739v.052361zm-1.1813199-.46143136c.2231809 0 .4348181-.04908844.6349114-.14726533.2000932-.09817688.3450326-.22580683.4348181-.38288985v-.72650895h-.5579525c-.8722015 0-1.3083022.21708001-1.3083022.65124001 0 .18980864.0743936.33816482.223181.44506854.1487873.10690372.339902.16035558.5733442.16035558z" />
                <path
                    d="m38.4140625 1.28938976.0230877.44506854c.318097-.34034653.7336754-.5105198 1.2467351-.5105198.8798973 0 1.323694.42216061 1.3313899 1.26648182v2.33988242h-.7118703v-2.34315499c-.0025653-.2552599-.0711871-.44397769-.2058653-.56615337-.1346781-.12217568-.3443913-.18326352-.6291394-.18326352-.2308769 0-.4335355.05236101-.6079758.15708302s-.3104011.24216965-.4078824.41234292v2.52314594h-.7118704v-3.54091298z" />
                <path
                    d="m43.7588619 4.40159701c.2539646 0 .4758629-.06545126.665695-.19635377s.2950093-.29453065.3155317-.49088442h.6733909c-.0128265.20289889-.0949161.3959801-.2462687.57924362s-.3533698.32943799-.6060518.43852342c-.2526819.10908542-.5201142.16362814-.8022971.16362814-.5669309 0-1.0177821-.16090101-1.3525536-.48270302s-.5021572-.76196171-.5021572-1.3204791v-.10144945c0-.34470995.0743937-.65124.223181-.91959016.1487873-.26835015.3623484-.47670332.6406833-.6250595s.6073344-.22253427.9869986-.22253427c.4668843 0 .8548857.11890312 1.1640042.35670935s.4739389.54651799.4944613.92613528h-.6733909c-.0205224-.2290794-.122493-.41725176-.3059118-.56451709-.1834189-.14726533-.4098065-.22089799-.6791628-.22089799-.3617071 0-.641966.11072171-.8407766.33216513s-.2982159.54160915-.2982159.96049719v.1145397c0 .4079795.0987639.72214553.2962919.94249809.197528.22035257.4797109.33052885.8465485.33052885z" />
                <path
                    d="m47.9415812 4.895754c-.5643657 0-1.0235541-.15762844-1.3775653-.47288533s-.5310168-.73687207-.5310168-1.26484554v-.11126713c0-.35125508.0788829-.66487568.2366488-.94086182.1577658-.27598613.3783815-.49197528.661847-.64796744s.59066-.23398824.9215835-.23398824c.5412779 0 .9619869.15162874 1.2621268.45488623s.4502099.7374175.4502099 1.30248001v.25198734h-2.8205457c.0102612.34907337.1301889.6310592.3597831.84595749s.5213969.32234744.8754081.32234744c.2513993 0 .4643191-.04363417.6387594-.13090251s.3270755-.2028989.4579057-.34689166l.4348181.28798553c-.3488806.45597708-.8722014.68396563-1.5699626.68396563zm-.0885028-3.17438595c-.2873135 0-.5284515.08890462-.7234142.26671387s-.3155317.42706945-.3617071.74778061h2.0855877v-.04581588c-.0205224-.30762091-.1180038-.54597257-.2924441-.71505498s-.4104477-.25362362-.7080223-.25362362z" />
                <path
                    d="m52.1897155 3.55073067c0-.22907939.075035-.43961427.2251049-.63160462.15007-.19199036.4367421-.41561548.8600164-.67087538-.248834-.25744161-.4155784-.46470393-.5002333-.62178694-.0846548-.15708302-.1269822-.31307518-.1269822-.46797649 0-.36216362.1256996-.64578573.3770988-.85086633.2513993-.20508061.592584-.30762091 1.0235542-.30762091.3847947 0 .7028917.09544975.954291.28634925s.3770989.43143287.3770989.7216001c0 .19199036-.0570779.36925418-.1712337.53179146-.1141558.16253729-.3136077.33325598-.5983559.51215609l-.4117304.25853246 1.2467351 1.26648182c.1744403-.28362212.2616604-.598879.2616604-.94577066h.6426073c0 .55633568-.1577658 1.01776704-.4732976 1.38429408l.8003732.81486814h-.8542444l-.373251-.37634472c-.1898321.14399276-.4123717.25362362-.6676189.32889256-.2552472.07526895-.5149837.11290342-.7792094.11290342-.5464086 0-.9850746-.12326653-1.3159982-.3697996-.3309235-.24653307-.4963852-.57160764-.4963852-.97522373zm1.8123834.85086634c.3770989 0 .7221315-.12217568 1.0350979-.36652704l-1.3660214-1.3908392-.1269823.07854151c-.4284049.26835015-.6426073.54433628-.6426073.82795839 0 .25744161.0981227.46361307.294368.61851438.1962454.15490131.4649604.23235196.8061451.23235196zm-.6426073-3.26274514c0 .20944402.1513526.47124904.4540578.78541508l.4540579-.27162272c.1744403-.10472201.2937267-.20453518.3578591-.2994395.0641325-.09490432.0961987-.20998945.0961987-.34525538 0-.14617447-.0641325-.26780472-.1923974-.36489075s-.2898787-.14562905-.4848414-.14562905c-.2103545 0-.3770989.06054241-.5002332.18162724-.1231343.12108482-.1847015.27434985-.1847015.45979508z" />
                <path d="m.73880597 12.7510948h-.73880597v-4.76485146h.73880597z" />
                <path
                    d="m2.65123601 9.21018184.02308768.44506854c.31809702-.34034653.73367538-.5105198 1.24673508-.5105198.87989739 0 1.32369403.4221606 1.33138992 1.26648182v2.3398824h-.71187033v-2.343155c-.0025653-.2552599-.07118704-.44397766-.20586521-.56615334s-.34439132-.18326352-.62913946-.18326352c-.23087686 0-.43353544.05236101-.60797574.15708302s-.31040112.24216964-.40788246.41234294v2.5231459h-.71187034v-3.54091296z" />
                <path
                    d="m8.75023321 11.8118693c0-.1636282-.07246968-.2907127-.21740905-.3812536s-.39762127-.168537-.75804571-.2339882c-.36042444-.0654513-.64645522-.1439928-.85809235-.2356245-.21163713-.0916318-.36812034-.2007172-.46944963-.3272563s-.15199393-.277077-.15199393-.4516137c0-.29016724.14429804-.53560945.43289412-.73632664s.65735774-.30107578 1.10628498-.30107578c.47201493 0 .85488573.10363116 1.14861241.31089347s.44059002.4723399.44059002.79523275h-.71571829c0-.1658098-.08273087-.30871174-.24819263-.42870571-.16546175-.11999398-.37389225-.17999096-.62529151-.17999096-.25909515 0-.46175373.04799759-.60797574.14399276-.14622202.09599518-.21933303.22144341-.21933303.37634471 0 .1461745.06798041.2563508.20394123.3305289.13596083.0741781.38158816.1450836.736882.2127166.35529384.0676329.6432486.1483561.86386427.2421696s.38415345.2067169.49061334.3387103c.10645989.1319933.15968983.2928943.15968983.482703 0 .3163477-.14878731.5699713-.44636194.7608708-.29757462.1908995-.68365205.2863493-1.15823227.2863493-.33348881 0-.62849814-.0501793-.88502799-.1505379s-.45726446-.2405334-.60220382-.4205243c-.14493937-.179991-.21740905-.3747085-.21740905-.5841525h.71187034c.01282649.2028989.10838386.3637999.2866721.482703.17828825.1189031.41365439.1783547.70609842.1783547.26935634 0 .48548274-.0463613.6483792-.1390839.16289645-.0927226.24434468-.2165346.24434468-.3714359z" />
                <path
                    d="m12.9598881 12.4009306c-.2770523.277077-.6836521.4156155-1.2197995.4156155-.4437966 0-.7817747-.1096309-1.0139342-.3288926s-.3495219-.5437908-.3520872-.9735874v-2.30388426h.7118703v2.28752146c0 .5367003.2565299.8050504.7695896.8050504.5438432 0 .9055503-.172355 1.0851212-.5170649v-2.57550696h.7118704v3.54091296h-.6772388z" />
                <path
                    d="m16.7462687 9.75342727c-.1077426-.01527196-.2244637-.02290794-.3501633-.02290794-.4668843 0-.7836987.16908241-.9504431.50724727v2.5133282h-.7118703v-3.54091296h.6926306l.0115438.40907035c.2334422-.31634774.5643657-.47452161.9927705-.47452161.1385262 0 .2437034.01527196.3155318.04581588z" />
                <path
                    d="m19.9708489 12.7510948c-.0410448-.0698147-.0743937-.194172-.1000467-.3730721-.3309235.2923489-.7259794.4385234-1.1851679.4385234-.4104477 0-.7471432-.0987223-1.0100863-.296167-.2629431-.1974446-.3944146-.4477956-.3944146-.7510531 0-.3687088.1648204-.655058.4944613-.8590478.3296408-.2039897.7933185-.3059846 1.3910331-.3059846h.6926306v-.2781678c0-.2116258-.0743937-.38016275-.223181-.505611-.1487873-.12544824-.3681203-.18817236-.657999-.18817236-.2539646 0-.4668844.05454271-.6387594.16362814s-.2578125.24107882-.2578125.39598012h-.7157183c0-.1767184.0737524-.3474371.221257-.5121561.1475047-.16471899.347598-.29507608.6002799-.39107126.2526819-.09599517.5303755-.14399276.8330807-.14399276.4797108 0 .855527.10199487 1.1274487.30598462.2719216.20398975.413013.48488473.4232742.8426849v1.6297363c0 .3250746.0487407.5836071.146222.7755974v.052361zm-1.18132-.4614313c.223181 0 .4348181-.0490885.6349114-.1472654s.3450326-.2258068.4348181-.3828898v-.726509h-.5579524c-.8722015 0-1.3083023.21708-1.3083023.65124 0 .1898087.0743937.3381649.223181.4450686s.3399021.1603556.5733442.1603556z" />
                <path
                    d="m22.3604244 9.21018184.0230877.44506854c.318097-.34034653.7336754-.5105198 1.2467351-.5105198.8798974 0 1.323694.4221606 1.3313899 1.26648182v2.3398824h-.7118703v-2.343155c-.0025653-.2552599-.071187-.44397766-.2058652-.56615334s-.3443913-.18326352-.6291395-.18326352c-.2308768 0-.4335354.05236101-.6079757.15708302s-.3104011.24216964-.4078825.41234294v2.5231459h-.7118703v-3.54091296z" />
                <path
                    d="m27.7052239 12.3223891c.2539645 0 .4758629-.0654513.6656949-.1963538.1898321-.1309025.2950094-.2945306.3155318-.4908844h.6733908c-.0128265.2028989-.094916.3959801-.2462686.5792436-.1513527.1832635-.3533699.329438-.6060518.4385234-.2526819.1090855-.5201143.1636282-.8022971.1636282-.566931 0-1.0177822-.160901-1.3525537-.482703-.3347714-.3218021-.5021571-.7619618-.5021571-1.3204791v-.1014495c0-.3447099.0743936-.65124.2231809-.91959015s.3623484-.47670332.6406833-.6250595.6073345-.22253427.9869986-.22253427c.4668844 0 .8548858.11890312 1.1640042.35670935.3091185.23780623.4739389.54651797.4944613.92613527h-.6733908c-.0205224-.2290794-.122493-.4172518-.3059119-.56451708-.1834188-.14726533-.4098064-.22089799-.6791628-.22089799-.3617071 0-.6419659.11072171-.8407766.33216513-.1988106.22144344-.2982159.54160914-.2982159.96049714v.1145397c0 .4079795.098764.7221456.296292.9424981.197528.2203526.4797108.3305289.8465485.3305289z" />
                <path
                    d="m31.8879431 12.8165461c-.5643657 0-1.0235541-.1576285-1.3775653-.4728854-.3540112-.3152568-.5310168-.736872-.5310168-1.2648455v-.1112671c0-.3512551.0788829-.6648757.2366488-.9408618.1577659-.27598617.3783815-.49197532.661847-.64796748s.59066-.23398824.9215835-.23398824c.541278 0 .9619869.15162874 1.2621269.45488623.3001399.30325749.4502099.73741749.4502099 1.30247999v.2519874h-2.8205458c.0102612.3490733.1301889.6310592.3597832.8459575.2295942.2148982.5213969.3223474.8754081.3223474.2513992 0 .464319-.0436342.6387593-.1309025.1744403-.0872684.3270756-.2028989.4579058-.3468917l.4348181.2879855c-.3488806.4559771-.8722015.6839657-1.5699627.6839657zm-.0885028-3.17438597c-.2873134 0-.5284515.08890462-.7234142.26671387-.1949627.1778092-.3155317.4270695-.3617071.7477806h2.0855877v-.0458159c-.0205224-.3076209-.1180037-.5459725-.292444-.71505495-.1744403-.16908241-.4104478-.25362362-.7080224-.25362362z" />
                <path
                    d="m39.5645989 10.54866h-2.4280551v1.6886425h2.8205458v.5137923h-3.5593517v-4.76485146h3.5208722v.51706492h-2.7820663v1.53155944h2.4280551z" />
                <path
                    d="m42.1619636 10.5028442.9235075-1.29266236h.8311567l-1.3621735 1.75082116 1.4045009 1.7900918h-.8234608l-.9619869-1.3253879-.961987 1.3253879h-.8273087l1.4045009-1.7900918-1.3621735-1.75082116h.8234608z" />
                <path
                    d="m48.1878498 11.0199091c0 .538882-.1449394.973042-.4348181 1.30248s-.6823694.494157-1.177472.494157c-.5053638 0-.9029851-.1363568-1.1928638-.4090704v1.7050053h-.7118703v-4.90229916h.6503031l.0346316.39270754c.2898787-.3054392.6926306-.4581588 1.2082556-.4581588.5002332 0 .8959305.16035558 1.1870918.48106674.2911614.32071115.4367421.76687058.4367421 1.33847818zm-.7118703-.0687238c0-.3992527-.1000467-.7145096-.3001399-.9457707-.2000933-.2312611-.4745803-.34689166-.8234609-.34689166-.4309701 0-.7541977.16253729-.9696828.48761186v1.691915c.2129198.3228929.5387127.4843393.9773787.4843393.3411847 0 .612465-.1150851.813841-.3452554.2013759-.2301702.3020639-.5721531.3020639-1.0259484z" />
                <path
                    d="m50.8198461 12.8165461c-.5643657 0-1.0235541-.1576285-1.3775653-.4728854-.3540112-.3152568-.5310168-.736872-.5310168-1.2648455v-.1112671c0-.3512551.0788829-.6648757.2366488-.9408618.1577658-.27598617.3783815-.49197532.661847-.64796748s.59066-.23398824.9215835-.23398824c.541278 0 .9619869.15162874 1.2621268.45488623.30014.30325749.4502099.73741749.4502099 1.30247999v.2519874h-2.8205457c.0102612.3490733.1301889.6310592.3597831.8459575.2295943.2148982.521397.3223474.8754082.3223474.2513992 0 .464319-.0436342.6387593-.1309025.1744403-.0872684.3270755-.2028989.4579058-.3468917l.4348181.2879855c-.3488806.4559771-.8722015.6839657-1.5699627.6839657zm-.0885028-3.17438597c-.2873134 0-.5284515.08890462-.7234142.26671387-.1949627.1778092-.3155317.4270695-.3617071.7477806h2.0855877v-.0458159c-.0205224-.3076209-.1180037-.5459725-.292444-.71505495-.1744403-.16908241-.4104478-.25362362-.7080224-.25362362z" />
                <path
                    d="m55.2796175 9.75342727c-.1077425-.01527196-.2244636-.02290794-.3501632-.02290794-.4668843 0-.7836987.16908241-.9504431.50724727v2.5133282h-.7118703v-3.54091296h.6926306l.0115438.40907035c.2334422-.31634774.5643657-.47452161.9927705-.47452161.1385261 0 .2437034.01527196.3155317.04581588z" />
                <path
                    d="m56.8996035 8.35277037v.85741147h.7772855v.46797648h-.7772855v2.19588968c0 .141811.0346316.2481693.1038946.3190749.0692631.0709055.1872668.1063583.3540112.1063583.0820896 0 .1949627-.0130903.3386194-.0392708v.4908844c-.1872668.0436342-.369403.0654513-.5464086.0654513-.318097 0-.5579524-.0818141-.7195662-.2454422-.1616138-.1636282-.2424207-.3959801-.2424207-.6970559v-2.19588968h-.7580457v-.46797648h.7580457v-.85741147z" />
                <path
                    d="m60.9322528 11.8118693c0-.1636282-.0724697-.2907127-.217409-.3812536-.1449394-.0905409-.3976213-.168537-.7580458-.2339882-.3604244-.0654513-.6464552-.1439928-.8580923-.2356245-.2116371-.0916318-.3681203-.2007172-.4694496-.3272563s-.151994-.277077-.151994-.4516137c0-.29016724.1442981-.53560945.4328942-.73632664.288596-.20071719.6573577-.30107578 1.1062849-.30107578.472015 0 .8548858.10363116 1.1486124.31089347.2937267.20726231.4405901.4723399.4405901.79523275h-.7157183c0-.1658098-.0827309-.30871174-.2481927-.42870571-.1654617-.11999398-.3738922-.17999096-.6252915-.17999096-.2590951 0-.4617537.04799759-.6079757.14399276-.146222.09599518-.219333.22144341-.219333.37634471 0 .1461745.0679804.2563508.2039412.3305289s.3815881.1450836.736882.2127166c.3552938.0676329.6432486.1483561.8638643.2421696.2206156.0938135.3841534.2067169.4906133.3387103.1064599.1319933.1596898.2928943.1596898.482703 0 .3163477-.1487873.5699713-.4463619.7608708s-.6836521.2863493-1.1582323.2863493c-.3334888 0-.6284981-.0501793-.885028-.1505379-.2565298-.1003586-.4572644-.2405334-.6022038-.4205243-.1449394-.179991-.217409-.3747085-.217409-.5841525h.7118703c.0128265.2028989.1083839.3637999.2866721.482703.1782883.1189031.4136544.1783547.7060984.1783547.2693564 0 .4854828-.0463613.6483792-.1390839.1628965-.0927226.2443447-.2165346.2443447-.3714359z" />
            </g>
        </g>
    </g>
</svg>