<svg xmlns="http://www.w3.org/2000/svg" height="558.232932" viewBox="0 0 500 558.232932" width="500"><script xmlns=""/><g fill="none" fill-rule="evenodd"><path d="m14.1130765 388.36027c-8.82923262-5.455488-13.72995275-11.510397-14.10296303-21.833335-.2142825-2.29525 3.0674143-.185896 1.24204486-.056907.99561999 4.123864 1.92814568 8.448799 4.53921761 11.96186 2.90471833 2.936404 6.18681196 5.618622 9.69033076 7.887316 1.3773603.891544.063888 2.856734-1.3686302 2.041066" fill="#fff"/><path d="m17.757715 375.869247c.8649182.823665-.2306697 2.175719-1.154839 1.418103-4.5015991-3.290775-8.78706179-15.020232-5.265902-19.841781.3950078-.09713.719585.26808.6744945.660486-.9498821 4.009539-.1863244 8.205569 1.5356863 11.861554.0033538.007771.0033538.011656.0074529.019426 0 .003885.0037265.003885.0037265.003885 0 .003886.0037265.007771.0037265.011656.890631 2.323357 2.2880645 4.339782 4.1956543 5.866671" fill="#fff"/><path d="m104.450966 122.771292c-.732892-1.42436 10.860125-2.272725 12.432119-2.922191 3.327016-.320674 9.790181-3.39346 12.584185-2.034046.090141.186721.066626.434736-.121496.544333-6.596027.803715-12.949063 3.388995-19.564293 4.286476-1.360357-.045057-4.785353 1.842454-5.330515.125428" fill="#fff"/><path d="m135.287623 495.083099c-12.841944.984174-25.779985.658762-38.6180536 1.904853-.4646055-.119053-.3173577-.845279.1394979-.785752 13.3650607-1.293712 26.8111067-1.257996 40.1719047-2.226296.305733 0 .565741.25398.569229.567487-.14686 1.047669-1.565477.392876-2.262578.539708" fill="#fff"/><path d="m98.3975509 131.738515c-.0465315-.478166.3210285-.910407.8019847-.956718 4.9968614-.301025 9.9432804-1.096039 14.9018214-1.744786 5.572053-.829362 11.171087-1.554909 16.727499-2.461842 3.089459-.174054 6.670823-1.791098 9.560471-.694673 0 0-.007821 0-.01916-.003859.144677.026629.234221.181387.172049.316076-.133338.255099-.387502.027401-.606474.069853-8.508232 1.099898-16.9191 2.921098-25.380801 4.349422-2.490805.127357-15.6838633 3.37688-16.1573901 1.126527" fill="#fff"/><path d="m120.159843 499.714228c6.450099-.480274 12.853361-1.433759 19.322655-1.543233.679524.067097 1.731441-.579154 2.061605.240137.099433.321359-.14627.706285-.525959.738068-11.102723.462617-22.136726 1.75865-33.258261 1.58561.018812.22248-.318647.42024-.330164.105943.080621-.766319 1.531807-.515588 2.141843-.614468 3.536209-.116537 7.056679-.384926 10.588281-.512057" fill="#fff"/><path d="m102.093461 523.62117c.118821.583751-.708706.659893-.674209.059221-.069376-.54568.12227-.901007.663094-.841786 6.734047.143823 13.487643-.427238 20.214408-.850246-.019164.00423-.037946.00423-.057494.008461 3.480287-.368017 7.025733-.799486 10.502186-1.095591 4.710652-.431468 9.46385-.097292 14.151504-.812176.793414-.131132.985059 1.256334.179764 1.366316-14.97903.748724-29.973009 2.521128-44.979253 2.165801" fill="#fff"/><path d="m153.0717 527.232767c-9.943503.760322-19.910581.870368-29.861814 1.24386-4.826831.300127-9.657526.650276-14.495564.556903-.050626.146729-.32501.083368-.274384-.07003 12.895638-1.477293 26.53018-1.560661 39.688608-2.401017 1.592584-.106712 3.184781-.230098 4.757656-.450191.830493-.113382 1.027972 1.033771.185498 1.120475" fill="#fff"/><path d="m266.3758 24.2212476c.098112-.121955.191908-.239976.215454-.3898626-6.985185.444939-13.982536 3.2770487-21.019524 3.2770487-.769198 0-1.538397-.0314722-2.307595-.1062188-1.153405-1.6286893 1.413206-1.4709346 2.394326-1.4394624 2.0839-.0708126 4.159951-.2561055 6.231685-.4842793 4.112857-.3934033 8.0809-1.345439 12.154512-1.8962035.914404-.0983508 4.195271-.4170074 2.586234 1.2549562-.133433.1652294-.396373-.054683-.255092-.2159783" fill="#fff"/><path d="m225.905695 18.4377589c-.054263-.801758.965115-.8409629 1.612013-.8900574 6.37208-.6431724 12.794935-.667543 19.11624-1.7059432 6.910838-1.3174262 13.977103-.5651158 20.980965-.5898396.710076.0812354 4.213945-.2440594 3.32635.928909-.093023.1483429-.352713.0455625-.321705-.1059592-6.749211.4803484-13.597647.0388517-20.310811.7735023-7.337195 1.3986615-14.810048 1.5399405-22.244141 2.136844-.744185.007064-1.992632.4128877-2.158911-.5474559" fill="#fff"/><path d="m241.756089 9.16054694c3.338961-.0376726 6.66622-.2198258 9.993869-.56343299 8.347013-.62470271 16.722111-1.40299369 25.081996-1.5690015.616304.40197901.089715 1.08919339-.483681 1.11817231-11.488601 1.16329662-23.018939 2.28519484-34.537185 2.89789194-1.088283-.0666515-1.151084-1.73914915-.054999-1.88362976" fill="#fff"/><path d="m346.495903 429.296859c-.098426-.507878-.317149-1.848674.393703-1.540562.333554.423231.842087 1.645523.169511 1.943478-.240596.08126-.489395-.104962-.563214-.402916" fill="#fff"/><path d="m348.153691 447.833551c1.36344 1.000808 1.183927 2.688962-.799257 1.627728-2.346484-1.476662-2.457611-4.769885-1.081349-6.828149 1.017237-1.193415 2.12423-2.439703 2.222535-3.999452-.025645-1.676824-2.521722-2.292415-2.846554-3.965462-.316284-1.227406 1.470292-1.223629 1.679723-.109523 7.710485 6.763946-1.850687 7.787413.824902 13.274858" fill="#fff"/><path d="m348.393703 427.705065c0-1.34058 2.022777-1.325171 2.007821.011557 0 1.34058-2.026516 1.325171-2.007821-.011557" fill="#fff"/><path d="m354.09711 439.015406c-.657229 2.833736-5.006037 5.085994-2.983137 8.18721.495056-.104666.499324.655132-.004268.550466-.315811.116296-.631622-.050395-.827938-.275233-3.657437-5.810903 5.509629-6.946724.960238-13.695745-.174977-1.062167 1.570521-1.488584 1.993026-.472935 1.062662 1.918877 1.55345 3.578028.862079 5.706237" fill="#fff"/><path d="m356.652285 428.250047c.142087-.905073-.315748-2.365892-1.416921-2.310317-1.460338 2.318256-3.540331-.412841-1.184058-1.325852 1.243261-1.782358-.588081-5.021565-2.553616-3.032787-.686753.742318.015787 2.449253-1.128802 2.552463-.963033-.242147-.331536-3.719531-3.757408-2.091988-1.835288 1.500515-.327589 4.652391-1.736617 4.894537-6.397856-2.941486-6.421537 6.053666-.398633 5.632886.805159.035727.631498 1.254399-.14998 1.063858-.923565-.079393-1.890545.277873-2.818056-.015879-5.241427-1.647391-3.611375-10.725904 2.379955-8.760944-.1263-3.263025 3.923176-6.351386 6.374174-3.401961 1.815555-3.957708 6.729392-.551777 5.561122 2.953395 3.082496.742318 3.386404 5.430435 1.16827 7.232641-1.191951.706592-2.474679-.996374-1.448496-1.941142.524932-.361236.994608-.782015 1.109066-1.44891" fill="#fff"/><path d="m442.771084 36.9978468c-.053867.0785291-.176994.106956-.261643.0533003-.650261-.5681816-1.439039-.469043-2.243208-.3340155-2.80882.4654897-5.648421 1.1619474-8.461089 1.5282984-7.079765 1.1406273-14.305742.9274259-21.404746 1.9081522-.346292.0533003-.688738-.2028967-.761844-.5081299.061563-1.4497693 3.012748-.8780343 4.136276-1.2223545 6.571869-.5226986 13.193757-.3308174 19.727149-1.2721014 2.339401.0355336 7.953193-2.1750092 9.269105-.1531496" fill="#fff"/><path d="m405.459628 33.3297479c.736324-.0436567 1.476483.0181903 2.212807-.0109142 7.298046-.6839553 14.527062-2.0595058 21.901809-1.8703267h.08437c.03835 0 .072865-.0032742.118886-.0032742 4.130318-.1640765 8.172431-.1022295 12.295079-.0876773 1.108321.2946829 11.46288-1.138349 9.484008.8152893-9.963386 1.0255691-20.030317.6690393-30.028219 1.3278919-5.108249.178265-10.063096 1.7208025-15.19819 1.6043845-1.399783.290681-2.56563-1.2878732-.87055-1.7753733" fill="#fff"/><path d="m363.932487 163.968425c-.444892-3.246346-2.390807-9.661651-5.350301-11.213242 1.911098-3.029665 3.814459-6.094153 6.011834-8.934609 1.620952-2.18577 5.358038-5.695228 5.388987-8.396002 3.191611-2.751462 6.630813-5.324549 10.340819-7.448409-.684746 1.94239-.971024 4.024075-1.524236 6.005159.263066 7.366767-3.516575 13.496131-6.715923 19.83405-4.421832 7.204644-1.129637 16.111781-4.653949 23.563673-3.284457-3.725753-2.120003-8.930353-3.497231-13.41062zm-49.661463-14.00301c1.102556 3.938564 2.622923 7.734738 4.576576 11.329321-.170219.173732-.340439.344368-.510658.514618-4.599788 4.128547-9.377532 8.086844-14.197832 11.952279 4.588182-7.355547 7.346508-15.651334 10.131914-23.796218zm185.128897-72.4759266c-8.120232-10.5361139-17.300465-20.4570085-26.128654-30.505977-2.785405-2.4798367-12.867027-16.4557616-16.224988-13.5889945-.495183.1551591-1.098688.2631127-1.524236.5803956h-.003869c-1.872411 1.7338349-2.270879 4.6551592-3.346355 6.9144456-.878177 2.0046862-1.733141 4.0128548-2.46431 6.0751937-5.172344 10.2726143-8.487751 21.3310841-13.350605 31.7901989 0 0 0-.0038693 0-.0077386-.050292.1118228-.096715.2240326-.150876.3327601-7.849428.6577816-15.327469 3.5636287-23.049232 5.0722701-2.901465 1.2308255-9.845636.9131557-11.605858 2.9754946-5.450884-.9363715-12.197755.6194755-15.149512 5.6805247-1.73701 3.5400259-1.094819 7.8276014-1.094819 11.6698194-8.708262 1.373603-16.762726 6.086415-23.648868 11.44927-2.874384 2.360275-7.025413 3.888263-8.669576 7.386114-1.005841 1.137575-2.034893 2.310361-2.94015 3.567885-2.944019-11.72786-7.961618-25.162469-19.47076-30.8267427-8.839795-4.2407568-18.952365-3.1805676-28.391795-4.8718402.208905-.700344.108321-1.311307-.177957-1.7911007.02708-.2634995.054161-.5262253.077373-.7897248 2.537814-2.800989 2.74285-7.312597 4.197451-10.7605335 4.077525 1.6177558 8.437458 1.7721411 12.766443 1.7257094 3.497232.0812554 4.53789.7510319 6.626945-2.5572228 4.414094-9.8090717 14.043087-35.8146616 12.131989-45.7003455 2.66161-7.0537406 3.431465-15.5782035-.228249-22.40326821-2.433361-3.91999154-9.733445-9.55718004-11.826368-2.34479802-1.450732-3.53267424-7.950012-7.20116104-10.348556-2.8516768-5.036942-5.80395549-11.90761-4.9759245-11.90761 3.74935525-3.562998-1.93465183-8.367823-2.3215822-11.663886.3478504-3.980809 4.37618248-3.55913 4.88693048-9.598044 6.07519368-3.918911 1.8998281-5.404461 5.9931644-6.216871 9.9711955-1.20314 2.2438092-5.044679 7.2936374-4.007889 9.7502583-4.43808 3.173216-4.349102 9.9944114-.077373 13.2678423-3.002048 11.0627261-8.067231 21.4978511-10.109475 32.850775-1.241827 1.5438521-1.969514 3.428203-2.994698 5.1070939-12.050361-2.4140586-37.200641-5.6027517-48.198738-.6848668-6.599864 3.8116511-10.921112 10.5171543-14.546008 17.1139303-7.373975-1.8800948-15.00676-2.8052453-22.592735-2.9329323-8.398772.2751074-16.68961 1.8766123-24.724731 4.1947123-4.019109 1.504772-6.645901 5.002622-9.489336 8.01681-3.219078 2.283276 1.6902 7.61092 3.492976 9.692993 2.870515 2.375365 11.64493.189209 15.486469-.232159 6.862543-1.590283 14.046569-2.16681 21.068499-1.532244 3.160662.212425 6.33293.526225 9.489336.96307-.935819 3.591101-1.713798 7.235985-2.522339 10.861522-3.307283 21.067972-4.854731 42.372358-6.328674 63.638051-6.727916 3.49785-6.182054 9.379579 1.783046 10.48233-6.487674 18.147034-2.212463 28.41191-1.87628 46.23044-.912994 13.805289-6.839332 26.926097-7.160427 40.751119-.870439 7.073088.394599 14.165521-.159 21.23087-.189176 4.120808-1.396185 8.071367-2.723508 11.94454-1.082827 4.078246-1.303338 8.353827-2.108011 12.474635-2.584237 4.875323-17.961998-1.505159-22.995458-1.892089-9.411964-3.687447-19.474629-1.605762-29.19995-3.575237-5.199811-.746776-10.348556-2.073947-15.207542-4.089854-6.2284765-3.11092-12.519238-5.981943-19.3782996-7.417455-2.5258214-1.261393-3.8063343.564918-4.8125621 2.700774-8.2320345-4.159502-16.5495655-8.330611-25.0760019-11.994842-1.3153305-.352106-2.9594936-2.174548-4.163021-.824161-1.3540167 1.83405-2.6650917 3.826741-3.3807862 6.047721-.6890011 1.721841 1.4004401 2.190026 2.5683762 2.716252 2.7973984 1.280739 5.6524393 2.460877 8.3484799 3.946689-8.6188964 2.070078-14.3173723 9.870594-17.9035822 17.524077-1.7799516 6.020636-7.0138063 16.00344.7234318 19.760533 4.3324665.858986 6.2358271-7.715391 8.1546621-10.605761 1.9269592-4.039553 3.9459915-8.00172 5.9116368-12.052881 5.5669429 1.485813 11.396565 2.901978 16.4992735 5.533104-.4328985 2.101032-4.9324893 8.473775-.5412198 8.411867 7.067967 4.627687 14.0546931 9.251505 21.2928794 13.604471 4.3866271 1.953999 8.6966556 4.027945 13.1258381 5.950989 13.679823 4.380052 28.523715 4.089854 41.959429 9.44884 15.199417 4.55417 32.005085 10.257524 47.731022 5.05718 4.448912-2.259674 8.649845-5.173259 12.337026-8.539554 10.364031-10.474205 11.96177-25.545142 15.571192-39.11479 1.152848-8.156492 5.056285-15.361136 7.156945-23.246777 1.125381-3.807394.854965-7.757953.47584-11.650473.007738-3.648753.518395-7.285899.379125-10.94626.595767-15.287619 3.733217-30.230483 6.619207-45.154774.274672-6.147936.324577-12.443293 2.479785-18.290198.382606.14742.750512.328891 1.098688.549828 2.023288 14.119089 1.056133 28.50516.471971 42.720595-.290146 11.085555-1.914966 22.198195-.22438 33.252795.100198 5.970336 1.516499 11.731729 2.332391 17.613071.201168 5.281599 1.307593 10.427773 2.151339 15.624248 1.295987 10.11436 3.868619 20.031385 3.75256 30.315994.053774 13.902408-.854964 27.986673 1.744361 41.691747.507176 13.407137 4.058568 26.388651 6.120542 39.575238 1.566791 11.151333.398468 22.604472 2.440712 33.748066-.216256 2.921325 2.000076 3.006449 4.278692 2.816853-.100197 4.848238.096716 9.688737.360169 14.525366-9.334978.561049-18.670343 1.129837-28.028532 1.39295-11.659631.100602-23.265488.247635-34.940981.561049-9.772518.286328-19.227423-2.383491-28.751577-4.055031-3.29645-1.779879-6.727528-2.240326-9.764394-1.590283-.306008-.019347-.634841.077386-.959418.247635-4.662073 1.396819-8.189866 5.525366-8.510962 11.576957.885914 10.710232 12.340508 16.297507 21.513004 19.029235 5.122439 1.690886 10.314125 2.99871 15.54798 4.004729.030949.131557.062285.255374.093234.367584.753994 2.809115 2.870515 4.573517 5.763855 4.72442.708345-.034824 1.226353-.216681 1.582266-.506879.827884 1.795357 1.961776 3.509459 3.091413 5.11135-.735037 1.180138-1.296374 2.468616-1.640681 3.819003-.437154 6.33405 4.484116 11.932932 10.750892 12.586845 5.822659 1.141444 10.418578-3.323732 12.762961-8.210663 1.268521-3.126397.789199-6.527515-.808541-9.336629.781074-1.532245 1.318812-3.799656 1.682462-5.324162 11.296755.33276 22.639159.16638 33.86241.355976 30.903303-.17025 61.740065-2.94454 92.503324-5.885211-.263066.270851-.367519.804815-.11219 1.342648.940075 2.139725 2.38307 4.055031 3.907306 5.831041-2.417887 5.517627-.348176 12.699055 9.292423 15.690026 7.961618 1.837919 17.791779-8.249355 13.265494-15.933792-.007737-.007739-.011605-.015477-.015474-.023216.58803-.630697 1.060002-1.493551 1.450732-2.147464 1.319199-2.708512 4.06205-5.045572 4.619131-8.013327.205037-.019347.410074-.034824.615111-.050301 6.367747-.619089 12.770311-1.083405 18.998788-2.592434 17.903969-3.548151 32.759466-22.863715 7.156945-29.039124-3.412122-1.040843-6.998332-.301806-10.414322.344368-6.185922.715821-12.480165 1.125968-18.712511 1.714102.127665-1.470336.255329-2.940671.394599-4.411006-.05416.015477-.108321.030954-.16635.038693-.174088-.019347-.348176-.027086-.522264-.027086.959418-.228288 1.574528-.514617 1.477813-.862854 1.404308-2.681428.715694-6.206363.870439-9.205074-.131533-.932502-.011606-1.984952-.011606-2.987102 0-.398538-.019343-.793207-.08511-1.16853v-.023216c-.003868-.150902-.038686-.282459-.088978-.394669-.05416-.193465-.123796-.383061-.212774-.564918-.13927-.085125-.27854-.131556-.413942-.135426.038686-2.426053.181825-4.859845-.050292-7.282029-.02708-.27859-.046424-.715821-.092847-1.180138.599636-.549441.379125-1.613499.379125-2.476354-.251461-2.600172 1.257301-8.868444-2.487522-9.119949-6.507018-1.450989-13.629145.971195-19.842148-1.77601-.796935-.673259-1.636425-.746776-2.495259-.564918-.878176-.800946-3.210954.924763-4.259349 1.11049-.634454.394669-2.533946.766122-2.692559 1.617369-.471972 1.245915.595767 3.656492.530001 4.805675.309489 2.747205.47584 5.506019.974892 8.230009.030948.177988.116058.336629.235985.456578-.077372 2.16681.259198 4.33362.437154 6.492691-.127664-.050301-.239854-.077386-.33657-.077386-.003868 0-.003868 0-.007737 0-.150876-.077386-.324964-.11221-.50292-.077386-.936206.441101-.816279 2.093293-.232117 2.94454-.402337 2.240327.549343 4.817283.545475 7.049871.332701 1.663801.007737 3.927343 1.237958 5.208083 6.131761 2.039123 12.789655 1.895959 19.118715.994411.696352-.127687 3.458546-.301806 5.826141-.626827-.019343 1.427773-.069635 2.851677-.131533 4.27558-.077373.007739-.158614.015478-.235986.023216.030949.143164.050292.286329.054161.429493.05416.058039.108321.116079.150876.181857-.092847 2.05847-.208906 4.116939-.313358 6.175409.046423.673259-.251461 1.613499-.317227 2.437661-.015475.003869-.034818.007739-.054161.011608-5.354169 1.539983-11.03717.317283-16.426156-.437231-1.14898-.27859-2.328909-.526226-3.512707-.592004-.576424-3.977644-.920731-7.978504-1.044527-12.010318-.781461-.131557-1.551316-.301806-2.297959-.549441.073503 1.539982.181825 3.060619.30562 4.573517-.162482-.050301-.344307-.069648-.545475-.05804-13.509218.870593-27.076465 1.052451-40.624369 1.44325-1.508761-.150903-3.152924.266982-4.661686.050301-5.033073.003869-9.911402.096733-14.932869.677128-2.750588.069648-5.497308.162511-8.244028.282459-.75438-4.809544-1.6519-9.568787-2.007813-14.478934 2.363726-.236027 4.746796-.301806 7.110522-.193465 2.243799 1.470335 3.466283-1.315563 2.831829-3.138005-.131533-5.138436-.197299-10.307825.065767-15.45013.47584-10.493551 1.075476-21.165091-.912994-31.546433-1.605477-9.646174-4.073656-19.156922-4.417963-28.965607.974892-15.933792 5.760373-31.380052 6.232345-47.364146.050292-12.656492-1.276644-25.301376-1.381097-37.953999 1.725404-22.418746 5.980885-44.771713 4.936358-67.329367.468103-9.720077-.765987-18.298323-3.574604-27.882589 8.893955-1.427386 18.058714-4.956578 24.956461-10.860748 3.659714-3.672356 7.311691-7.363672 10.572936-11.398969 2.839567-3.877042 5.280665-8.013328 8.40651-11.685684 5.284533 9.333148 8.596071 20.561867 16.83623 27.76651 15.965791 16.073088 33.653117-3.795787 35.332098-20.92945.959417-4.364188 1.976864-8.818143 4.205189-12.756707 1.423652-2.356793 2.696427-4.797937 3.396647-7.479364 3.292195-8.644025 2.820224-17.930353 4.228401-26.907138 8.158918.015477 16.093455-1.733448 24.078285-3.099699 5.783585-.618702 11.551697-1.547722 17.261778-2.62687 7.141471-.847378 14.155277-2.387748 21.188427-3.83448 2.313434 0 2.499128-2.433792 2.812486-4.186587 4.568839 1.017627 6.882273-4.004729 8.804977-7.247593 2.000076-2.994454 3.926648-6.024505 6.027308-8.953181 4.425701-7.146991 8.704393-14.394197 12.631042-21.8538274 2.723508-6.0206365 7.822348-12.4827605 8.696655-18.9363721.522264-.9363715.193431-2.039123-.336569-2.8942391z" fill="#fff"/><path d="m405.939094 494.493163c25.648332 6.149123 10.766254 25.382471-7.169751 28.91552-4.771475 1.149051-9.644935 1.689781-14.526793 2.156293l-2.253421.211988c-.751112.070203-1.502082.140593-2.252569.213117-.205404.015412-.410807.030823-.616211.050087-.782859.057793-1.565719.123291-2.348578.196495-9.115273.824506-18.168538 2.226938-27.307064 2.77404-.685971.065498-1.375817.130997-2.061788.196495-.248034.023117-.499945.046234-.747979.073204-30.818304 2.928154-61.710244 5.690636-92.668843 5.86016-11.243332-.188789-22.606032-.023117-33.923-.35446-.654966-.015412-1.306057-.038529-1.956761-.061646-7.77046-.261993-15.514179-.778272-23.179612-1.82239-.178275-.023117-.35655-.050087-.534825-.073204-.44995-.061646-.89525-.127144-1.340937-.192642-2.116045-.312079-4.22434-.66654-6.325271-1.067235-5.243219-1.001737-10.444196-2.303995-15.5758-3.987683-9.188908-2.720101-20.663998-8.283593-21.551497-18.948238.321669-6.025833 3.855776-10.136807 8.52619-11.52768.313919-.100173.635589-.181083.961135-.246581 3.042299-.647276 6.479517-.188789 9.781866 1.583515 9.541195 1.664424 19.013018 4.32288 28.803022 4.03777 11.696384-.31208 23.323008-.458487 35.003502-.558661 9.374934-.261993 18.727002-.828359 28.078684-1.38702 6.844205-.412254 13.685311-.816801 20.533392-1.101911 2.751635-.119438 5.503269-.211906 8.258779-.281257 5.030452-.577925 9.91751-.670393 14.959589-.674246 1.511461.215759 3.158566-.200347 4.670027-.050087.303008.028781.60025.081448.88981.166567l-1.272055.042332c1.955507-.063599 3.911413-.122341 5.86749-.179206l5.868515-.167949c9.780954-.280471 19.560483-.588572 29.310098-1.296979.203257-.013224.38697.008816.551138.066118.384724.119407.667458.407737.833814.764381l.070573-.004011c.166648-.007706.329421-.019264.496069-.02697.007751.350608.06976.701216.170524 1.036412-.158897.539397-.189902 1.101911-.147271 1.660572-.35655.019264-.713099.038528-1.069649.050087-13.227223.662687-26.481574.535543-39.724298.416106-.856495.8168-2.220685.439223-3.282584.304374-2.336951-.181084-4.689405-.219612-7.030231-.13485-5.034329-.12329-10.107412.793684-15.130114.585631-1.302181.084762-2.604363.169525-3.906545.25814-6.925592.458487-13.844209.928533-20.76205 1.356198-14.630168.913121-29.256461 1.637454-43.940887 1.652865-2.420126.024006-4.84438.076943-7.270005.125429l-2.425979.045766c-7.278694.125428-14.561446.110655-21.773798-.945614-.982197-.207048-1.967157-.407345-2.953324-.605438l-1.973485-.394597c-5.92252-1.183066-11.851201-2.395987-17.450179-4.62125-.73779-.136025-1.468152-.157576-2.182084-.082546-.028727.099618-.071185.194043-.125916.281902-.081357.138283-.193708.25736-.333177.35339-8.186463 5.439138-2.592193 14.880804 4.451397 18.364771 3.939341 2.035968 8.199637 2.998542 12.501967 3.814597l1.359702.253912c1.813932.334939 3.630111.661199 5.427716 1.047968 5.036393 1.014076 10.355599 1.010235 15.418724 1.513432 11.711551 2.128024 23.427363 3.929546 35.402356 3.234289 9.014757.226631 18.030288-.145965 27.041557-.303454 10.515214.099871 21.006408.503197 31.489854-.580021 7.808893-.587999 15.637144-1.04316 23.469535-1.478026l4.69981-.259385c21.150285-1.164376 42.308569-2.344897 63.175329-5.756768 6.114145-.698587 25.338416-3.092274 30.927441-9.48333.57885-1.166218.862867-2.341977.802847-3.492467-.178275-3.617811-3.759275-6.985188-12.231208-9.023337-2.538895-.603519-5.053503-.124815-7.572449.370324l-.889266.173702c-1.334309.25637-2.670778.482203-4.013653.519356-5.131216.577925-10.285686.84377-15.420778 1.367756-.670469.065498-1.340938.138702-2.011406.215759.186026-.743597.081386-1.591221-.387554-2.196116-.042631-.065498-.096889-.123291-.151146-.181083-.003876-.142555-.023254-.28511-.054258-.427665l.236408-.023117c.868121-.092468 1.736242-.17723 2.608239-.261992 6.243497-.585631 12.549003-.994032 18.745993-1.706806 3.422103-.643423 7.01473-1.379314 10.432957-.342902zm-250.237589 6.452896-.086938.078051c-.502227.459352-.964239.965567-1.377151 1.506065-.875872 1.140439-1.534714 2.434991-1.895139 3.768071-.992139 5.894837 3.789892 11.254129 8.53743 14.132196 8.599826 4.09171 17.680606 6.754018 26.989657 8.495499 1.38318.25814 2.770624.497016 4.166206.716627 14.072091 2.223085 28.577854 2.542871 42.646456 2.700837 34.880647.631865 69.609372-2.346376 104.307093-5.58661 14.134099-1.117322 28.21394-2.723953 42.324786-4.145649 7.041859-.80139 14.28137-1.009443 21.067443-3.174735 3.639924-1.347792 6.821789-3.100656 9.251984-5.050096-11.248064 5.439047-33.329503 7.863285-46.412062 9.063205l-1.584576.143524c-3.41111.305391-6.066607.522342-7.543432.68905-24.868159 1.851458-49.771186 2.877058-74.64322 4.471155-19.534619-.19206-39.056066.464785-58.593397.349549-8.132225-.069141-15.977376-2.273989-23.965483-3.311113-11.579829-1.083218-29.947555-2.208689-38.827103-9.871881-4.397159-2.846328-6.400094-8.439113-5.008887-13.275182.166121-.578973.380936-1.147138.646333-1.698563z" fill="#374b47"/><path d="m285.802129 98.4133924c.201299 1.2671641.30969 2.5269206.325175 3.7745896.17033 11.236431-6.801579 21.61548-15.856156 27.927906-3.647767 1.88749-7.739166 2.838838-12.009411 3.216647-1.308056.117359-2.631983.179353-3.963652.194949-6.98778.101763-14.210925-.986049-20.544483-1.746737-9.979391-1.58649-19.223653-5.462062-28.421849-9.521276-1.39322-.4168-2.798828-.803187-4.215275-1.157603-.538088-.136464-1.080046-.269419-1.625876-.393796-2.56656-.60434-5.160605-1.107306-7.769748-1.520597-.840036-.136464-1.683555-.261231-2.527849-.378589-3.158457-.440194-6.332785-.7564-9.495499-.970453-7.026491-.639431-14.215183-.058485-21.082183 1.543991-3.844034.424597-12.624148 2.627513-15.496528.233938-1.803947-2.098034-6.716413-7.466521-3.495244-9.767301 2.845281-3.037295 5.47378-6.561961 9.495498-8.078269 8.040341-2.3358704 16.336563-3.9496526 24.74079-4.2268691 7.590902.1286659 15.228645 1.0609088 22.607409 2.9554161.019356.004289.038712.012087.061938.015596.003484.004289.003484.004289.003484 0 .612026.160248 1.223665.324004 1.835304.499458.220267.058484.437438.120868.657705.18715 4.184694 1.212579 8.27648 2.748772 12.217292 4.63977 7.208434 3.859977 14.691332 6.939771 22.232296 10.043348 4.664327 1.941685 10.21553 3.805781 15.798089 4.632362.189298.027293.382855.054195.572927.077589 1.397479.191439 2.79457.312307 4.176951.347398.61551.019105 1.230633.019105 1.84653.003509 5.895734-.163756 11.443066-1.984184 15.566595-6.662943 2.798828-4.109901 3.631122-9.174268 5.12925-13.84523-1.939437-.9439399-.240011-2.8891342-.278722-4.4487208.27485-.8616715.089036-1.9260894.34066-2.7370744.081293-.2690286.212912-.5107646.425824-.7022038.34066-1.4110359.952298-2.5109344 1.908468-2.1639263 1.126499-1.1852858 1.207793-3.5515685 3.081421-4.0233435 4.355023-.4054925 3.398853 6.6828284 3.561441 9.5481788.665835.573538.696804 1.7545349.197428 2.5031364" fill="#374b47"/><path d="m462.840562 53.7679347c.623225.2531847 1.263854.5877505 1.917013 1.0187615 6.556818 4.0389966 1.8577 15.8562678-5.753382 14.360329-10.914733-3.1312915-5.821476-18.272098 3.10953-15.6251776.608291-.5341955.786403-.3265138.726839.2460871zm-2.794087 7.380095-.004769.0124417c-.717357 1.7911056-1.671233 3.9271746-2.758321 3.9232922-.066572.3375009-.140552.6753218-.225735.9805092.992257.8615784 2.228401 1.4730571 3.616121 1.6782469.768004-.1363277 1.444958-.3570625 2.036645-.645725-.069187-.0557702-.128182-.1261168-.174721-.2095055-.169791-.1979622-.854342-1.6875229-1.491142-3.3004268l-.14585-.3738663c-.265337-.6886224-.514329-1.3832569-.704164-1.994994l.055629.0229989c-.080345-.0297832-.147975-.0608113-.203693-.0929713zm1.407784.3027916.044776.0776096c.935545 1.6174755 2.347833 3.6181219 2.356348 4.8486378 1.323745-1.0596256 2.010338-2.5601511 2.186452-4.1384321-.059329-.0081056-.116909-.0234847-.172335-.0458092-.3168-.1933597-1.512944-.3259777-2.757344-.4895111l-.373937-.0500791c-.445069-.0609626-.885689-.1270412-1.28396-.2024159zm4.463897-1.6972381-.097458.035362c-.579883.2029744-1.336863.3595087-2.102361.50373l-.417376.0776502c-.47656.0879844-.944487.1735863-1.362709.2651201.464528.047965 1.0573.0555401 1.669359.0710101l.416069.0122356c.760447.0265718 1.512959.0818895 2.052699.2573363-.021487-.4103065-.0751-.820104-.158223-1.2224443zm-3.356567-4.7825125-.003673.0122402c-.478191 1.5635936-1.391739 3.6463355-1.585595 3.9821652-.096913.1591977-.208266.4011277-.332921.6984122.020564.0201312.042081.0424025.064075.0655527.018001.1166513.051525.2439105.098103.3802643.514364-.2406867 1.179558-.486829 1.856691-.7175818l.361903-.1216369c1.03169-.3423657 2.033551-.6408726 2.512755-.8260235-.593287-1.5342254-1.632508-2.8307715-2.971338-3.4733924zm13.549948 35.4260329c.766731.5080039 2.315453 1.1618665 1.628828 2.3187299-2.414633 3.6972677-5.218353 7.1905642-7.880934 10.7388945-1.552537 1.534018-4.577503 7.87406-6.110967 7.991055-1.090971-.147398-2.429891-3.205812-1.686047-4.073652.057219-1.915791 1.968327-3.509076 3.017338-5.047327 2.456593-2.6350776 4.779676-5.3944624 6.976877-8.2515995 1.270257-1.1145297 2.086578-4.0686494 4.054905-3.6761009zm-5.638707-.6492963c1.702486 1.5560365-2.386626 6.1046646-3.196585 7.9790534-1.246393 1.8100833-2.488854 3.6320753-3.61336 5.5247233-.131192.192189-.251895.449753-.376894.720198l-.108539.23374c-.38598.820559-.84864 1.622057-1.78717.987138-2.79434-1.871109-1.217874-3.730597.115067-5.8754825l.179821-.2942813c2.154648-3.1215997 4.199204-6.3269555 6.361715-9.4469674-.039318-.3040623.047182-.6220177.251638-.8534384.884664-.9522785 1.863691.1270234 2.174307 1.0253169zm-6.617734 1.7714634-.006026.0644969c.063274.6328487-.356299 1.4499397-.80814 2.2322186l-.157865.2705302c-.341817.5816205-.672255 1.1289899-.798073 1.5481616-1.085708 1.2881765-1.952741 6.256914-3.821081 5.732306-1.193944-.198846-1.510249-.816452-1.423003-1.5912141-.251822-.6188766-.986626-.7840114-1.017615-1.4852394.763237-2.0013906 2.351701-3.6309065 3.293156-5.5839263.798106-1.1450338 1.696944-2.343469 2.661645-3.2969544.814433-.3697879 2.100795 1.3182324 2.077002 2.1096209zm-3.084167-5.61959c.5501.4560935 1.537159 1.0659442.831002 1.8717756-1.240651 2.5883801-3.097726 4.9668376-4.794843 7.3178101-.409649.424625-.79589 1.7610385-1.529357 1.1296777-.163859-.1923958-.171662-.4298033-.109239-.6560576-.893425-.0860403-1.634695-2.3143256-1.248454-3.0548301 1.334285-2.2525838 3.043106-4.2530215 4.662195-6.3004628.475973-.8372999 1.603483-1.292995 2.188696-.3079129zm-14.785292-7.2176725c1.53734 1.5826794 2.142055 3.6797882 3.641068 5.2878187.68137.958656-.82616 1.9223822-1.562891.9964874-.384415-.1705295-1.333156-1.5750577-2.112698-3.0499223l-.170149-.3284326c-1.05619-2.0814146-1.669605-4.1314122.20467-2.9059512zm3.847063-.3715553c.619622 1.0312831 1.365985 1.9739251 1.904633 3.0657342.330934.7036623-.598498 1.3354746-1.006885.6739851-1.299094-1.8747408-3.495935-4.111075-2.809422-6.6687822.992803-.5923728 1.394149 2.2699163 1.911674 2.9290629zm.617417-5.8927517c.269363.0798995.599428.3006645.341447.5861821 1.066071 1.8229204 2.314247 3.7234682 3.023697 5.6615044-.094846.6774418-1.05469.8966921-1.430281.3211127-.478025-.44721-4.017686-7.7472221-1.934863-6.5687992zm22.628632-1.2866424c-.558086-.6647402.280602-1.3549879.583028-1.879437.274366-.3269594.869866-1.4601096 1.228412-.7474462.065474.4316946-.227599.7980747-.358546 1.1806868-.33984.5858989-.698387 2.0811779-1.452894 1.4461964m2.023432 1.0142124c-.555016-.6334964.169078-1.3804548.51826-1.8640193.323454-.3570452.874794-1.539842 1.279111-.7212944.110268.8446619-.929928 3.352083-1.797371 2.5853137m1.80545 7.9279626c-.141747.6352835-.551238 1.1640672-.854418 1.7258741-.704796.9097887-1.161536 3.2119173-2.657751 2.3475355-.83473-.5741906-.53155-1.649508.177184-2.1795301.759919-.6744985 2.720749-4.1596827 3.334985-1.8938795zm-2.393844-1.7594378.062302.00206c1.111196.7945989-.971423 2.5544186-1.285912 3.4169389-.471734.7761865-1.181083 2.1935349-2.103585 1.3314237-1.3776-.9810626 2.331101-4.6987997 3.327195-4.7504226zm-3.271081-2.0085751c1.879368.6277761-.897881 2.8845669-1.395895 3.8303329-.447123.4922203-.926962 1.5485405-1.690342 1.0668679-1.326827-.6058997 2.370113-4.6225732 3.086237-4.8972008zm-1.363188-1.5292853c-.277951.8641964-.979954 1.5198592-1.411134 2.3102317-.577282.7823812-1.22227 2.9955763-2.419596 1.9605195-.694877-.9635162.755455-1.9593779 1.208016-2.6504306.192427-.1342022.503637-.5343565.847842-.9497887l.174455-.2078286c.646837-.7581962 1.356517-1.4273188 1.600417-.4627033zm9.036145-2.2882781c-.096559.684526-.733129 2.1705767-1.705865 1.7289471-1.133666-.5728003 1.255259-2.5548604 1.705865-1.7289471zm.231676 3.6735777c-.952555-.5893644 1.311769-2.39654 1.751163-1.711189.214886.6362634-.99425 2.3612094-1.751163 1.711189m3.006064 2.9169058c-.833344-1.089624.855866-2.9346713 1.586249-2.7615535.453673.3541047-.003218 1.0762005-.141572 1.5265845-.247751.7822705-.778646 1.9908551-1.444677 1.234969" fill="#374b47"/><path d="m461.809715 54.2152736c.002008-.0486947.078314-.0455823.075301.0031125-.002008.0487952-.077309.0456827-.075301-.0031125" fill="#d94a3d"/><path d="m462.813731 91.363868c.002008-.0486948.078313-.0455823.075301.0031125-.001004.0487951-.077309.0456827-.075301-.0031125" fill="#d94a3d"/><g fill="#000"><path d="m316.965553 63.2591945c1.506851 1.4053665-3.0137 4.3156352-4.430296 3.9837221-1.91888.1332247-2.315213-1.7736483-2.817496-3.1702097-.204053-.8360993-.804439-1.8812234-.255066-2.6828681.227597-.2541987.690639-.1584913.784818.1672964 0-.0015313 0-.0026798 0-.0042111.043165.336507.620006.6504271.329623.9926765.427726 1.0439756.902541 2.0787633 1.491154 3.0461731 2.460404.7886284 3.311931-3.091347 4.897263-2.3325792"/><path d="m297.863883 46.2049915c.558666-.2137181.241434 1.3243518.218975 1.7758752-.137561.5934183-.087029 2.3657899-.656924 2.2103187-.729915-.5032011.457601-2.703447.460408-3.6559818-.182479.0805822-.204938-.3284603-.022459-.3302121"/><path d="m303.194876 49.530305c.035384.6320201.13648 1.7067844-1.101948 1.6737712-2.527404-.2398962 1.147442-5.3774896 1.101948-1.6737712"/><path d="m308.93219 49.3459642c.327202.0817885.424583.5883759.124649.7840839-.031162.810373-.081801 2.2575272-1.160786 2.0605673-.440164-.1014009-.751785-.590045-.646613-1.0678396.144125-.7711479.740099-2.4302843 1.68275-1.7768116"/><path d="m328.025014 54.3133272c.692669.5706619.07584 3.2711158-1.198266 2.8763489-1.289274-.5728773.187071-1.7842047.434814-2.5701941-.116287-.3703986.495486-.5157225.763452-.3061548"/><path d="m330.043799 55.230057c.415934.1146697.267593.5983495.1687.9220249-.049447.4180113-.058173 1.1680315-.584634 1.0676955-.581726-.1926719-.194879-.8933575-.049447-1.3073687-.005817-.3396758.087259-.7590205.465381-.6823517"/><path d="m314.124909 38.215756c.612429 3.8349583-.85345 6.5906767-5.46445 5.8360952-.790232-.2267807-1.975579-.2681479-2.331183-1.0792399-2.141527-.3564225-4.409491-1.036026-5.859566-2.6390039-1.758265-2.207234-2.149429-6.190671 1.80963-6.1821759 4.26725-.1846749 8.732057 1.359207 11.845569 4.0643245zm-3.184633 2.5189652c.983838-.0402591 1.493537-.2264114 1.868897-1.5712138-3.512578-1.3891243-7.250373-3.7806639-11.229188-3.0079842.27263 3.4131609 6.345558 4.6442036 9.360291 4.579198z"/><path d="m309.378336 37.3641301c4.038815 1.5901744.648346 7.0404582-1.95648 3.7872915-2.650592-1.0564309-.404263-4.953521 1.95648-3.7872915"/><path d="m315.936005 28.5257095c.869024 1.1425054-.090034 2.8788763-1.628441 2.5604427-.837708-.3703318-1.698903-.6394619-2.610986-.8559522-2.802798-1.0023798-5.785663-1.2778118-8.737213-1.6188582-8.764614-.9145232 5.499903-9.6315944 12.97664-.0856323"/><path d="m462.828421 129.727991c.027087.116619.030957.222077.00774.315603-.162523.625049-1.176354.675468-1.269224-.073897-3.204015-9.789865-8.199647-19.032812-12.351709-28.467815-3.494234-6.9490494-6.609249-14.0039409-9.325696-21.2824489-.162523-.2732664-.236045-.8452015.162522-.902164 3.683844 4.9203346 5.227807 11.6157461 8.242213 17.0910808 5.19685 10.9483601 10.382092 21.9267411 14.534154 33.3196411"/><path d="m492.904197 79.2282062c.398509.9464608-1.075588 1.5773068-1.477966.6089602-.259224-1.1914272-1.385109-1.872188-2.011891-2.8439902-10.206477-11.448913-20.026053-23.1531594-29.543844-35.1776281-.336605-.6861362-3.048789-2.2788014-1.632727-2.6558499 0-.0015359 0-.0030717 0-.0030717 6.410968 4.9050863 10.666891 12.2195204 15.959712 18.248457 6.511562 7.0207048 12.930268 14.2111198 18.706716 21.8231227"/><path d="m458.005455 39.9383432c.285161-1.35028 2.119446-.7648145 1.795748.3479906-1.741799 2.9150905-3.194583 6.0167958-4.917114 8.9521539-5.545242 9.7835071-9.734038 20.2824983-13.329389 30.8732672 0-.0011472 0-.0011472 0-.0026769-2.635821 1.8623234 2.119446-9.1299732 2.543335-9.7005248 3.649301-10.6102716 8.670461-20.582688 13.90742-30.47021"/><path d="m491.18756 79.764068c.686737-.9006115 2.196779-.3789626 1.677824 1.0202839-.191194.413867-.518955.7030753-.75307 1.1027504.019509-.0253153.035117-.0525484.054627-.0778638-10.066946 15.9881552-19.70468 32.2087505-29.432159 48.3936755-4.182855 2.903589 7.757011-14.929899 8.166712-16.037635 4.740829-7.237879 7.885774-15.3802045 12.930952-22.4374237 2.103134-4.1873831 5.193452-7.8508159 7.355114-11.9637873"/><path d="m414.369991 92.3904856c.915273 1.6507764-.500598 4.1128144-2.084581 2.4232913-.575315-.901671-.620145-2.1787019-.638824-3.2430289.586522-2.265075 2.532879-.9743212 2.723405.8197376"/><path d="m419.6577 120.304402c.24804 1.307449-1.77762 1.683985-1.973046.336342-.334478-3.085473-1.134971-6.073115-1.864058-9.079717-.240524-2.212577-4.122726-14.2473256-.879415-14.1711083.759153.2252391.770428 1.1497056.950821 1.7954671 1.954254 6.9274322 2.348863 14.0967872 3.765698 21.1190162"/><path d="m419.536028 120.77477c.828456 2.499211-2.19755 4.063184-2.742075 1.120905-1.334088-6.912629-1.477998-14.132911-2.135318-21.071242.124463-.685125 1.147393-.479511.991814.200628.517299 6.613797 3.488853 13.028885 3.885579 19.749709"/><path d="m420.661729 128.973405c.219862 1.16503-1.337801 2.017168-2.276871 1.264082-.886899-.721975-.469535-2.005725-.68567-2.987669-.186323-1.005903.55897-2.243524 1.702996-1.542289.842181.833186.871993 2.199898 1.259545 3.265876"/><path d="m421.018101 136.520938c-1.451002-.472775-1.133327-2.243998-1.339386-3.378262.304796-5.227029 5.64946 3.943613 1.339386 3.378262"/><path d="m422.791041 131.418114c-1.188467-.480571-1.341684-3.532324-.819918-4.523764 1.403799-1.325148 2.078782 1.083178 2.451472 2.113755.745379 1.272966-.091102 2.963381-1.631554 2.410009"/><path d="m417.078359 93.9487885c-.430334-.8443841-.592537-3.6553585-.145651-4.4815447 1.095696-.7101239 1.115558 2.2278316 1.622028 2.9678809.479988 1.2718335-.575986 2.6645821-1.476377 1.5136638"/><path d="m418.042969 100.485337c-.203754-.8516516-.35345-1.719489-.365925-2.5934921-.099797-1.036241.993818-2.0828867 1.929421-1.1352792.532254 1.1980933 1.405484 2.7449402.948078 4.0328233-.548887.952617-2.257922.761862-2.511574-.304052"/><path d="m418.986192 105.716315c-.454462-1.06254-.712282-3.733438 1.442044-3.248389 1.074978.485785 1.241032 2.015695 1.258511 2.947858-.117985 1.165295-2.219873 1.396586-2.700555.300531"/><path d="m421.248087 112.283335c-.541715-.384186-.677143-1.241216-.478725-1.939449.135429-2.033625.9606-2.816182 1.568454-.468904.806274 1.041045.141728 3.186576-1.089729 2.408353"/><path d="m421.431404 119.114296c-.904226-.783995-1.279954-4.907807.573915-4.644384 1.127186.675019 1.915803 2.843548 1.630909 4.092844-.239475.893753-1.540073 1.239103-2.204824.55154"/><path d="m422.822418 122.933691c-.248222-.700176-.12046-1.539618.175216-2.208652.949086-.956662 1.584244 1.173259 1.701054 1.843693.014602 1.000752-1.471083 1.29013-1.87627.364959"/><path d="m427.060717 130.034669c-.481758-.89624-.453603-2.281615-.025026-3.202593.891564-1.243452 1.729948 1.398394 1.676767 2.421367.018769 1.185293-1.1387 1.737794-1.651741.781226"/><path d="m425.407296 135.463973c-.992706-.436843-1.009034-3.374852.378796-2.877316 1.221291.612553 1.355176 3.460272-.378796 2.877316"/><path d="m424.116374 93.3295688c-1.360055-.2857831-2.251692-5.0672324-.275298-4.9748333 1.187479.0228954 1.216242 1.4473135 1.557283 2.2838116.61223 1.10143.357476 3.0520324-1.281985 2.6910217"/><path d="m424.662978 100.232381c-1.130144-.6703142-.927408-2.1208363-.957603-3.2298858-.172541-1.8341 1.811682-2.2778882 2.342246-.4639987.910155 1.4050486 1.225042 4.6353555-1.384643 3.6938845"/><path d="m425.990137 105.696753c-.381037-.599573-.254025-1.340665-.286802-2.018115-.045069-4.6512925 2.835246-1.102007 3.011425 1.264462.016389 1.494326-1.999423 2.057053-2.724623.753653"/><path d="m427.072017 111.664734c-.264763-.657733-.228244-1.358724-.36519-2.034943.02739-3.22803 3.925789.95388 2.811961 2.293377-.556914.816713-2.14549.647381-2.446771-.258434"/><path d="m428.79536 118.361989c-1.299565-.511259-1.768974-4.690542.530257-3.772999 1.273488.964119 2.594785 4.560846-.530257 3.772999"/><path d="m429.617558 124.371117c-.769103-.38265-1.027972-1.301299-.847889-2.072386.754096-5.493451 5.706368 3.344029.847889 2.072386"/><path d="m431.152804 128.995115c-.531555-.66658-.429673-1.566022-.407525-2.353875.744176-2.730748 3.220333.10064 2.972274 1.704138-.11074 1.164305-1.869299 1.608973-2.564749.649737"/><path d="m432.225236 133.357159c-.97624-.679623-.403512-3.35046.728926-2.746994 1.405786.90943.761467 3.639945-.728926 2.746994"/><path d="m427.045408 91.3917145c-.223509-1.0553568-.468305-2.2651561-.258987-3.3376732.376063-.9559052 1.532633-.9063744 1.976103-.0503108 2.423121 3.6941388-.361871 5.6804404-1.717116 3.387984"/><path d="m429.446603 98.1191217c-.873192-.6206599-.72389-1.752327-.719366-2.6596081-.09501-.8928866.357421-2.637593 1.651375-1.914901.791755.7612187.809852 1.8878053 1.248711 2.8293794.488626 1.2493639-.913912 2.614731-2.18072 1.7451297"/><path d="m431.714357 104.414886c-1.240148-.354608-.965611-2.343881-.965611-3.488146.397604-1.1708332 1.30957-.128781 1.479972.657187.564851.923973.943522 2.918411-.514361 2.830959"/><path d="m432.927573 109.826988c-.118346-.666344-.620422-4.049049.656286-3.291323.294073-.058045.502076.360822.290486.596533.254625.778904.806908 1.4527.864289 2.293179.025103 1.096977-1.423745 1.418579-1.811061.401611"/><path d="m434.964656 114.682684c-.081047-.93762-.317955-1.92987-.187032-2.867119.875935-1.396954 1.577307 1.561957 1.932669 2.293324.308604 1.36425-1.421447 1.935444-1.745637.573795"/><path d="m437.59736 123.471236c-2.431581-.346361-1.930448-4.004858-1.481608-5.6386 1.507754-1.40506 2.213696 1.673803 3.128807 2.407422 1.185287 1.254831.191738 3.504095-1.647199 3.231178"/><path d="m437.735516 128.446774c-.925988-.356506-1.111186-1.341888-.921681-2.148821.202425-5.358943 5.874639 3.04263.921681 2.148821"/><path d="m440.722267 131.084176c.34349 1.457999-1.585097 2.068434-1.950646.613308-.17017-2.492756 1.002109-3.046063 1.950646-.613308"/><path d="m362.697054 192.717137c-1.513928-2.142831 4.387075-5.821611 5.175349-7.792219.489909-.618597.394137-2.197114 1.303967-2.193994.861944.624069-.364669 2.612251-.692502 3.414396-1.506561 2.195943-4.026091 3.590911-4.961705 6.236352-.121557.337417-.526744.474883-.825109.335465"/><path d="m367.579681 189.832251c.576709-.307725 1.260522.429981.663216.816056-.881542 1.057164-.539636 4.193078-2.265645 4.129868-1.565354-.589333.865064-4.15977 1.602429-4.945924"/><path d="m282.537872 186.669912c-1.858817-.377813-3.62162-1.050694-5.418989-1.613716-.983176-.43239-2.745979.146125-3.022497-1.131679.629847-3.847145 9.893207 3.015463 13.02708.986962 1.543893-.394362 1.167521.807386.07297 1.158791-1.413315.658445-3.103149.783795-4.658564.599642"/><path d="m278.709777 189.023457c1.934908.519374 1.891182 1.331674-.204058 1.169976-1.512217-.166892-4.762571 1.518303-5.407541-.233372-.189482-1.971197 4.310728-.92864 5.611599-.936604"/><path d="m202.718816 147.471185c-1.057741-.644804-1.831186-1.7481-2.357385-2.90085-.194162-.437792-1.177445-3.670628.027076-2.880149 0-.000767.000357-.001534.000713-.0023.725705 1.736216 1.587859 3.484317 3.151848 4.510176.699699.578483-.073746 1.772252-.822252 1.273123"/><path d="m208.556501 154.488525c-3.596024-1.889738-8.02934-2.654016-10.130696-6.64503-.261944-.559008-1.004055-1.721291-.409747-2.21958.222478-.133582.661244.074038.481714.347079 1.380526 2.366089 3.955471 3.979261 6.41937 4.924522 1.527943.690632 5.302723 1.020082 4.891041 3.278836-.256914.431694-.832262.573894-1.251682.314173"/><path d="m196.602059 187.711754c-.819198.008033-3.00225-1.09876-1.003165-1.226012 1.192768.15304 2.371447-.113723 3.413661-.741103 1.121919-.355966 2.639548-2.818136 3.700279-1.737555.915006 1.663994-4.818575 4.081352-6.110775 3.70467"/><path d="m199.975518 189.753551c-.356671-.134766-.821252-.032585-1.087051-.347175-.330166-.451368.291925-1.008939.685702-.693143 6.84679.248614 7.092522-11.905729 10.000032-10.948685.275265.232925.346069.655731.165841.977964-2.322525 4.325004-3.941553 11.238735-9.764524 11.011039"/><path d="m216.075606 175.071138c.834284-.991446 2.373402.198289 1.57097 1.222915-1.510532 1.715041-2.962669 3.528026-3.725898 5.693614-.097599.430959-.486768.98385-.971494.630847-.57865-2.632527 1.532992-5.490127 3.126422-7.547376"/><path d="m318.432471 143.484776c-.762317-.688271 1.435821-1.900974 1.839183-2.412238 3.596952-2.168613 3.685765-10.991797 5.650767-10.533208.969549.547285-.19243 1.742947-.32565 2.51178-1.161978 4.999545-1.454323 7.936217-6.420486 10.286871-.048107.128978-.181327.213414-.318248.192111-.133221.068169-.310848.06081-.425566-.045316"/><path d="m331.701896 127.777058c.57868-.590356 1.660885-.132698 1.630824.698174-.349462 1.307003-1.916406 1.957677-2.431205 3.239798-.744016 1.14867-.789108 3.228866-2.074227 3.827139-1.341484-.2375.364493-3.261663.383281-4.230888.40207-1.421229 1.488033-2.506188 2.491327-3.534223"/><path d="m251.0957 125.815486c.019344.058055.042555.119593.061512.181905.054547-.065795.119927-.12385.189949-.178035-.07776 0-.162482 0-.251461-.00387zm-.689001-11.092353c.294402-3.669069-.243336-5.720728-1.4929-8.348679-.433672-.769808-1.667375-.127334-1.288637.669953.994622 1.89646 1.678981 3.997659 1.818638 6.146077-1.323068-1.853886-5.265577-8.882784-7.903589-6.471571-1.655769 2.291233 1.965259 3.72364 2.95137 5.461029 2.043018 2.682523 3.536305 5.61623 4.781613 8.6734.050679-.026706.108708-.046444.166351-.065409.042554-.015481.088978-.031349.135788-.042573.069635-.019739.138884-.03522.216643-.050702.038686-.007353.076985-.015481.115672-.022835.066153-.011998.13927-.019738.21316-.027479.088979-.011224.181439-.018965.278154-.023222.119927-.007741.247979-.011224.379125-.011224.088978 0 .182212.003483.274672.007741.266935.011224.549731.034446.839877.069666.305621.038316.618592.08863.936206.150555.177956.034833.355913.073537.541606.11224.015475.004257.030949.008127.049906.011998-.672753-2.221567-1.497156-4.377338-3.013655-6.238965zm0 0c.294402-3.669069-.243336-5.720728-1.4929-8.348679-.433672-.769808-1.667375-.127334-1.288637.669953.994622 1.89646 1.678981 3.997659 1.818638 6.146077-1.323068-1.853886-5.265577-8.882784-7.903589-6.471571-1.655769 2.291233 1.965259 3.72364 2.95137 5.461029 2.043018 2.682523 3.536305 5.61623 4.781613 8.6734.050679-.026706.108708-.046444.166351-.065409.01973-.007741.039073-.015481.062284-.023222.023212-.008127.049906-.015868.073504-.019351.069635-.019739.138884-.03522.216643-.050702.038686-.007353.076985-.015481.115672-.022835.066153-.011998.13927-.019738.21316-.027479.088979-.011224.181439-.018965.278154-.023222.119927-.007741.247979-.011224.379125-.011224.088978 0 .182212.003483.274672.007741.266935.011224.549731.034446.839877.069666.305621.038316.618592.08863.936206.150555.177956.034833.355913.073537.541606.11224.015475.004257.030949.008127.049906.011998-.672753-2.221567-1.497156-4.377338-3.013655-6.238965zm.689001 11.092353c.019344.058055.042555.119593.061512.181905.054547-.065795.119927-.12385.189949-.178035-.07776 0-.162482 0-.251461-.00387zm247.267431-44.8806819c-6.890011 13.9486532-14.37192 27.6538629-22.755218 40.7703959-1.8492 2.383734-3.238034 5.000461-5.087234 7.411674-1.37336 1.981606-2.305697 4.775594-4.611394 5.839934-.220511-.193516-.433285-.351813-.64219-.483791 12.367975-17.257394 23.269743-35.6379573 31.931581-55.0553805.247592.2167382.584162.4338635.835622.6970456.003869.2438306.135402.4760501.328833.6308631.007737.0619252.007737.1234634 0 .1892589zm-35.811807 53.0699039c-9.106729-16.932674-15.346812-35.130945-23.69916-52.4193022.367518-.1973866-.274672-.4338634-.243723-.7276212 5.392854-15.5122647 13.462794-29.9837989 18.584846-45.5808237 12.317683 15.0671773 25.258213 29.6269549 38.218087 44.1484163-1.129636 1.807442-1.926572 3.816528-3.156793 5.5697854-6.955777 10.8098192-12.696808 22.3240374-19.215431 33.3927814-3.926648 4.834424-6.932565 10.488582-10.487826 15.616764zm-2.042631 3.897418c-.077372.267439-.154745.537975-.247592.801544-7.373588 1.466853-14.720095 3.057557-22.209742 3.873809.135402-.089018.251461-.20474.344307-.340589.839491-.313496 2.000077.251571 2.638399-.487274.998103-2.167382-3.686794-1.78809-4.704241-1.262113-.851096.697046-.317227 2.086493.707957 2.256787-5.795191 1.292302-11.718047 1.718037-17.590611 2.538933-8.004173 1.543873-16.232725 3.331964-24.418723 2.85243.096715-.661825.023211-1.339132.100584-2.004828 7.392931-.878564 14.712358-2.392249 22.113026-3.398146 10.863083-.817026 21.540471-3.262685 32.453846-4.106803-.027081.348717.096715.70827.410073.940877-.174087 1.586833 5.845484.436959 3.512706-1.358872 2.317303-.325107 4.638475-.649827 6.986727-.665309-.030949.11998-.061898.239961-.096716.359554zm-64.76842 15.830018c-1.268907 9.219115-.943943 18.798171-5.199424 27.362815-2.851173 4.481836-5.385118 9.215245-6.503149 14.455665-1.779565 8.410218-4.004021 17.38976-10.747024 23.272268-5.269059 4.513186-13.946372 4.695092-18.724116-.614995-8.700524-6.595422-13.44732-20.845573-17.656378-30.772958 3.798984-7.280083 8.77016-13.650638 14.20557-19.76614 2.475916-4.125767 3.818327-8.854918 6.348404-12.973331 1.381097 3.464328 2.750588 6.881826 3.044603 10.635655 1.071607 5.163401.70022 11.986785 6.089206 14.846955l-.127664-.058442c.058029.030963.11219.058442.16635.081277-.402336 1.482335-3.323143 2.492877-2.568763 4.010045 1.578397 1.571352 3.694531-2.728967 4.228401-3.95586 5.276796-5.952174 3.667451-15.260694 6.739134-22.300816 2.518471-5.897989 6.460594-11.324185 7.53607-17.745055.417811-2.372897-.007737-4.772112.324964-7.152362-.274672-2.221567 1.45847-4.679611.707958-6.707274 2.181901-.967581 4.595919-1.226893 6.951908-1.494333-.150876 6.17704-.131533 12.292541.08511 18.492803.208905 2.000958-.375256 6.524981 2.475916 6.571812.58803.580549 1.620951 1.067823 3.303801 1.215283-.340439.801157-.410074 1.795444-.680877 2.596988zm-76.892673 7.60519c-.170219.173777-.340439.344459-.510658.514753-4.599788 4.129637-9.377532 8.08898-14.197832 11.955436 4.588182-7.357489 7.346508-15.655467 10.131914-23.802502 1.102556 3.939604 2.622923 7.73678 4.576576 11.332313zm-7.663734 52.252878c-3.64424 2.763412-7.87264 4.466355-12.135858 6.014486-5.338695 2.616727-11.191915 2.698003-16.994844 2.469654-10.124176-.046444-18.872284-5.611972-25.754558-12.625002-3.906918-3.796789-8.131837-7.230155-11.605857-11.456163-3.767648-6.355075-7.388676-12.845611-10.804666-19.398459-3.365699-6.5095-5.814921-13.685084-10.77836-19.204168-10.336563-12.652481-18.541904-21.43425-22.379574-37.654397-.10484-.429993-.201555-.866953-.298271-1.308557.391118.023222.588417-.107982.630972-.274793.069635-.267053-.27119-.611512-.83949-.495015-.511045-.228349-.808929-.027479-.967155.332848-.174088.383162-.193431.943972-.150876 1.354614 0 .046444.007737.092888.011219.135461 1.450732 18.171179 9.880453 26.577526 20.21779 40.359368 5.481833 6.266057 8.174005 14.327945 11.930434 21.643247 3.771904 5.952561 6.224608 12.768204 10.670039 18.267937-11.869311-1.830664-23.89646-3.711642-35.91626-2.233565-6.4722-.278276-23.660474 4.640907-27.575904.197774.464622-1.021766 1.199659-1.861627 2.004332-2.627951 1.087082 1.0446 3.098377.212868 3.141319-1.293076.073503-3.223981.479322-6.424353.552825-9.652592 1.130024-13.159107 2.104529-26.318214 3.048859-39.492802 1.140856-8.91723 1.953653-18.066292 4.150641-26.813228.027468-.11998.054161-.23609.08511-.352587.317227-1.234246.661534-2.465397 1.037177-3.680292.09246-.302273.185694-.603771.285891-.901786 1.013965-3.131093 2.255405-6.189038 3.81059-9.149837.638322-1.180062 1.292118-2.372122 1.969127-3.564182.038686-.070053.077759-.135849.11219-.205128 3.21134-5.616229 6.990981-11.1117042 12.577267-14.4247029 3.81059-2.4309514 8.445196-1.8813652 12.750969-2.1751229 10.827877-.7783225 24.921644.2322195 34.964192 2.6124697-.707957 5.9409497.120314 12.0134901.765986 17.9389591.32922 1.702943.054548 4.891704 1.648419 5.905729 2.089054 1.192448 5.787454-6.122467 6.893879-7.639635 2.426398-3.533994 5.134431-6.8698279 7.950786-10.1092904 1.856937-2.14029 3.764166-4.2383935 5.663658-6.3283692 1.516499 5.0047179 2.63453 10.1131606 3.829933 15.1991556.959418 4.071582 1.969127 8.127683 3.272852 12.110248.711826 3.583922 3.176136 3.653201 4.375408.286017 2.750588-6.850089 5.002125-13.897952 7.478041-20.8533136 28.852161 2.2409185 34.647352 1.2195396 45.146784 30.3356116.541607 1.935163.78533 4.021268 1.613215 5.848449-9.466511 8.975285-17.486159 19.343887-26.712815 28.559132-2.677085-4.51667-3.969203-9.788053-6.402565-14.327945.47584-2.028438 6.344536-5.004718 4.278693-6.777327-.808541-.35607-1.179929.580549-1.620951 1.068597-3.450809 2.503713-5.064023 6.447575-6.49928 10.341122-3.450809 8.275143-6.843588 16.905969-8.568992 25.676127-5.369643 2.689489-12.220967 4.234136-17.598348.781806-3.632633-2.682136-4.572708-7.628799-6.565046-11.475902-1.51263-2.627564-2.909202-5.332922-4.487598-7.918686-.719564-.978806-1.470076-1.942904-2.239931-2.890747-.576424-.71988-1.168323-1.432407-1.76409-2.140677-4.573869-5.460642-9.382562-10.798208-11.552857-17.706739-.011219-.038703-.023212-.077019-.034431-.115723-.081241-.263569-.159-.526364-.232504-.793803-.866184-2.345031-1.775309-4.671483-2.680566-7.001419-.487446-1.443632-.866571-2.925966-1.28825-4.388562-.061898-.205515-.119928-.410255-.182212-.615382-.672753-2.221567-1.497156-4.377338-3.013655-6.238965.294402-3.669069-.243336-5.720728-1.4929-8.348679-.433672-.769808-1.667375-.127334-1.288637.669953.994622 1.89646 1.678981 3.997659 1.818638 6.146077-1.323068-1.853886-5.265577-8.882784-7.903589-6.471571-1.655769 2.291233 1.965259 3.72364 2.95137 5.461029 2.043018 2.682523 3.536305 5.61623 4.781613 8.6734.054161.128107.10484.251571.155132.379292.599249 1.505943 1.145111 3.038592 1.667374 4.582852.019344.058055.042555.119593.061512.181905.83949 2.480879 1.625206 4.992333 2.503383 7.465858.069635.20474.143139.405997.216643.607254 1.071607 2.945705 2.293704 5.832968 3.915042 8.542196 4.711591 8.216701 12.361012 14.26602 16.430799 22.923938 3.183873 6.881052 5.702344 14.552037 14.313891 15.809893-1.392703.495788-4.081394-.812382-4.642343.937005-.069635 1.288432 1.535841 1.18819 2.433361 1.250116 2.905333.247313 5.706213-.626993 8.189867-2.086106 3.342487-.414125 6.615338-1.529165 9.598044-3.023111 6.452856-4.125767 12.344763-9.203247 17.942655-14.420446 11.435638-12.117989 22.836458-24.294033 33.711146-36.915552 3.481758 2.686006 7.350377 4.873127 10.766367 7.597836-3.667451 5.882508-8.363954 11.158149-11.300236 17.544186-2.893727-2.128679-6.305849-3.855232-9.203445-6.095763.119927-.519011-.564818-.263182-.800804-.491918-4.514678-.769808 8.019647 8.743452 9.141547 8.220958-1.907229 3.723253-3.443071 7.616801-5.199424 11.40972-5.149132 5.925468-10.549724 11.49835-14.14754 18.608525-7.056361 10.565602-14.00827 21.457085-23.842299 29.708232zm-48.149607-131.2887959h.011219c5.804089 1.4471147 11.792711 1.9816066 17.70783 2.7514144-.108321.2902744-.255329.5693249-.390731.8476013-7.037018 6.3090176-12.937435 14.1890002-17.626202 22.4366642-.433672-4.826683-.86657-9.5678318-1.675499-14.3705188-.433285-4.6676126-.545088-6.9627156 1.973383-11.6651611zm36.508932 4.8108146c-.119927.4408301-.235986.8781769-.352045 1.319394-.61511.2287362-1.148979.7508431-1.388834 1.6448883-1.775696 7.6942072-3.686794 15.404283-6.313586 22.862013-1.841463-9.370058-3.55913-18.7555976-7.443223-27.5485902 5.156869.6730497 10.387242.7314916 15.497688 1.7222949zm72.540476 66.7437633c-4.421832 7.206547-1.129637 16.116036-4.653949 23.569896-3.284457-3.726737-2.120003-8.932711-3.497231-13.414161-.444892-3.247203-2.390807-9.664203-5.350301-11.216204 1.911098-3.030465 3.814459-6.095762 6.011834-8.936968 1.620952-2.186347 5.358038-5.696733 5.388987-8.39822 3.191611-2.752188 6.630813-5.325955 10.340819-7.450376-.684746 1.942903-.971024 4.025138-1.524236 6.006745.263066 7.368713-3.516575 13.499695-6.715923 19.839288zm23.242663-43.491235c-3.423728-.154813-6.766214.603771-10.162862.836378 3.292195-.971839 6.754609-1.134393 10.162862-.836378zm-25.532886 3.166314c5.15687-2.384508 10.387243-5.193977 16.074113-5.987781 3.957597-.433089 9.350452-1.656112 12.553669 1.254373-3.795116-.329365-16.727909-1.447889-17.25791 3.603273 2.731245 2.658913 19.350833-3.681067 21.323828 2.016439-5.021467.735362-10.128044-1.226893-15.192067-.224479-1.659637.127721-5.253585 2.086106-3.017523 3.789049 6.309718 2.213439 13.872868-1.118911 19.741563 2.69723.557082.429993.874308.851472.174088 1.335262-15.408709-1.757127-23.273612.062313-35.657062 9.772572-3.238034-2.98015-6.998332-5.325181-10.735418-7.620284 0-.394773-.212774-.766324-.53-.998931 3.818327-3.703514 8.642495-6.010228 12.522719-9.636723zm19.242512-19.2316478c2.228324-3.781308 10.882425-5.5697855 14.37192-3.0962604-.116059.2515711-.379125.3982565-.638323.464052-3.292194.4179952-6.510885 1.3623546-9.799212 1.7304226-1.504892.2434434-2.042631 2.1828636-1.365622 3.4054994-.545475 2.3454173-.878177 4.8034612-.433286 7.1798412-1.477812-.02748-2.920807.12772-4.390882.321237.526132-3.618755.61511-6.8005493 2.255405-10.0047918zm10.182205 16.1620928c2.653873-1.137876.711826-4.450875-1.214746-5.240421-.019343-.491532-.104453-.978806-.042555-1.470337 3.454677-.131591 6.828113-.963711 10.286658-1.017895.916863 6.208002 2.034894 12.380784 2.916939 18.596527-1.547448.286791-3.021392.894432-4.584314 1.025636.615111-8.371514-14.793599-4.763984-19.934994-5.801231 5.388987-1.493946 11.114543.889788 16.491923-.503529 3.354093-1.702944-1.497155-5.890249-3.918911-5.58875zm5.447016-22.0840779c10.569067-1.8418879 20.797696-5.4258093 31.413187-7.0281241.189562.2360898.468103.4179951.769855.4837907 5.501176 12.9346279 10.441403 26.0894773 16.012214 39.0012703 1.829857 4.392432 3.829933 8.703975 5.899644 13.04261.162482.514753.626717.998544 1.207009.901786.019343.054571.038687.108756.05803.15907-14.09338 1.663853-28.093912 4.338635-42.253058 5.472641-7.555413.781418-14.886446 2.770766-22.465071 3.305258.75825-6.397649-.274672-12.768204-1.114162-19.096574 3.628765-.344459 7.721764 1.006672 11.083594-.622735 2.375332-.182292 4.87446-.650602 7.021543-1.69946.557081-2.302457-.02708-5.007814-.208905-7.419027-.22438-1.691719-1.535842-14.479275-3.640371-13.410678-3.814458.147072-7.555413.894045-11.385346.940102-.742775.348716-.479708 1.459113-.263066 2.349675-1.03679-.305756-2.154821-.425736-3.222559-.565068-.228249-2.245176-.127665-4.5398916-.174088-6.8005487.433285-.154813.793067-.487274.909125-.9788053 3.214823-1.033377 6.630813-1.4126689 9.837898-2.4305645 2.267011-.986933 2.572632-4.2302658.514527-5.6046184zm94.734744-10.867487c-8.120232-10.5388965-17.300465-20.4624111-26.128654-30.5140335-2.785405-2.4804917-12.867027-16.4601075-16.224988-13.5925833-.495183.1552001-1.098688.2631821-1.524236.5805488h-.003869c-1.872411 1.7342929-2.270879 4.6563887-3.346355 6.9162717-.878177 2.0052157-1.733141 4.0139147-2.46431 6.0767982-5.172344 10.2753272-8.487751 21.3367176-13.350605 31.7985945 0 0 0-.0038703 0-.0077406-.050292.1118524-.096715.2240918-.150876.332848-7.849428.6579553-15.327469 3.5645698-23.049232 5.0736097-2.901465 1.2311505-9.845636.9133968-11.605858 2.9762803-5.450884-.9366188-12.197755.6196391-15.149512 5.6820249-1.73701 3.5409609-1.094819 7.8296682-1.094819 11.6729022-8.708262 1.373965-16.762726 6.088022-23.648868 11.452293-2.874384 2.360898-7.025413 3.88929-8.669576 7.388064-1.005841 1.137876-2.034893 2.310972-2.94015 3.568827-2.944019-11.730956-7.961618-25.169113-19.47076-30.834883-8.839795-4.2418768-18.952365-3.1814076-28.391795-4.8731269.208905-.7005289.108321-1.3116533-.177957-1.7915737.02708-.2635692.054161-.5263643.077373-.7899334 2.537814-2.8017287 2.74285-7.3145283 4.197451-10.7633753 4.077525 1.6181831 8.437458 1.772609 12.766443 1.7261651 3.497232.0812769 4.53789.7512302 6.626945-2.5578981 4.414094-9.8116622 14.043087-35.8241201 12.131989-45.7124148 2.66161-7.0556035 3.431465-15.5823176-.228249-22.40918485-2.433361-3.92102679-9.733445-9.55970406-11.826368-2.34541727-1.450732-3.53360721-7.950012-7.20306284-10.348556-2.85242991-5.036942-5.8054883-11.90761-4.97723863-11.90761 3.75034543-3.562998-1.93516276-8.367823-2.32219531-11.663886.34794227-3.980809 4.37733813-3.55913 4.88822113-9.598044 6.07679813-3.918911 1.9003298-5.404461 5.9947472-6.216871 9.9738289-1.20314 2.2444017-5.044679 7.2955636-4.007889 9.7528333-4.43808 3.1740539-4.349102 9.9970508-.077373 13.2713462-3.002048 11.0656477-8.067231 21.5035287-10.109475 32.8594508-1.241827 1.5442599-1.969514 3.4291084-2.994698 5.1084427-12.050361-2.4146961-37.200641-5.6042314-48.198738-.6850477-6.599864 3.8126577-10.921112 10.5199319-14.546008 17.1184501-.011606.019738-.019343.042573-.034817.062312-.235986.433476-.468103.863083-.70022 1.292302-2.990443 5.109216-4.890322 10.620173-6.387477 16.267365-.050292.185776-.096716.367294-.147008.553069-.935819 3.59205-1.713798 7.237896-2.522339 10.864391-3.307283 21.073536-4.854731 42.383548-6.328674 63.654857-6.727916 3.498774-6.182054 9.382056 1.783046 10.485099-6.487674 18.151827-2.212463 28.419413-1.87628 46.24265-.912994 13.808934-6.839332 26.933208-7.160427 40.761881-.870439 7.074955.394599 14.169262-.159 21.236476-.189176 4.121897-1.396185 8.073499-2.723508 11.947695-1.082827 4.079323-1.303338 8.356033-2.108011 12.47793-2.584237 4.87661-17.961998-1.505557-22.995458-1.89259-9.411964-3.68842-19.474629-1.606185-29.19995-3.57618-5.199811-.746973-10.348556-2.074495-15.207542-4.090934-6.2284765-3.111742-12.519238-5.983524-19.3782996-7.419415-2.5258214-1.261726-3.8063343.565068-4.8125621 2.701488-8.2320345-4.1606-16.5495655-8.332811-25.0760019-11.998009-1.3153305-.3522-2.9594936-2.175123-4.163021-.82438-1.3540167 1.834535-2.6650917 3.827752-3.3807862 6.049319-.6890011 1.722295 1.4004401 2.190604 2.5683762 2.716969 2.7973984 1.281077 5.6524393 2.461527 8.3484799 3.947732-8.6188964 2.070624-14.3173723 9.8732-17.9035822 17.528704-1.7799516 6.022226-7.0138063 16.007666.7234318 19.765752 4.3324665.859213 6.2358271-7.717429 8.1546621-10.608562 1.9269592-4.04062 3.9459915-8.003833 5.9116368-12.056064 5.5669429 1.486205 11.396565 2.902744 16.4992735 5.534566-.4328985 2.101586-4.9324893 8.476012-.5412198 8.414087 7.067967 4.62891 14.0546931 9.253949 21.2928794 13.608065 4.3866271 1.954514 8.6966556 4.029009 13.1258381 5.952561 13.679823 4.381208 28.523715 4.090934 41.959429 9.451334 15.199417 4.555374 32.005085 10.260233 47.731022 5.058516 4.448912-2.26027 8.649845-5.174625 12.337026-8.541809 10.364031-10.476971 11.96177-25.551889 15.571192-39.12512 1.152848-8.158647 5.056285-15.365193 7.156945-23.252916 1.125381-3.8084.854965-7.760003.47584-11.65355.007738-3.649717.518395-7.287823.379125-10.949151.595767-15.291656 3.733217-30.238467 6.619207-45.166699.274672-6.14956.324577-12.44658 2.479785-18.295029.382606.14746.750512.328978 1.098688.549973 2.023288 14.122818 1.056133 28.512689.471971 42.731878-.290146 11.088482-1.914966 22.204057-.22438 33.261577.100198 5.971912 1.516499 11.734827 2.332391 17.617722.201168 5.282994 1.307593 10.430527 2.151339 15.628374 1.295987 10.117031 3.868619 20.036676 3.75256 30.324001.053774 13.90608-.854964 27.994064 1.744361 41.702758.507176 13.410677 4.058568 26.39562 6.120542 39.585689 1.566791 11.154278.398468 22.610442 2.440712 33.756979-.216256 2.922096 2.000076 3.007243 4.278692 2.817597-.100197 4.849518.096716 9.691295.360169 14.529202.046423.932749.100197 1.869368.154745 2.802116.297883 5.306216.614723 10.612433.630198 15.918649.820534 1.993218 8.674604 1.594574 10.481249.781806 1.504893-.696659.773724-2.635692.707958-3.91677-.147008-2.066754-.216643-4.187692-.100584-6.30089 5.454752 9.524871 26.519383 4.40056 35.734434 2.995632 2.727376-.944359 5.381249-2.395731 7.404537-4.474096 1.73701-2.178993.375256-4.87274-2.367595-4.930795-10.453009-2.190604-21.025945.491532-31.564063.030963-.061898-.491532-.131533-.979193-.201168-1.466854-.119927-.851471-.247592-1.699072-.382994-2.546674-.75438-4.810814-1.6519-9.571315-2.007813-14.482758 2.363726-.23609 4.746796-.301885 7.110522-.193516 2.243799 1.470724 3.466283-1.315911 2.831829-3.138834-.131533-5.139792-.197299-10.310547.065767-15.45421.47584-10.496323 1.075476-21.170681-.912994-31.554764-1.605477-9.648722-4.073656-19.161982-4.417963-28.973257.974892-15.938001 5.760373-31.38834 6.232345-47.376655.050292-12.659835-1.276644-25.308058-1.381097-37.964023 1.725404-22.424666 5.980885-44.783537 4.936358-67.347147.468103-9.722645-.765987-18.303157-3.574604-27.889953 8.893955-1.427763 18.058714-4.957887 24.956461-10.863617 3.659714-3.673326 7.311691-7.365616 10.572936-11.401979 2.839567-3.878066 5.280665-8.015444 8.40651-11.68877 5.284533 9.335612 8.596071 20.567297 16.83623 27.773843 15.965791 16.077332 33.653117-3.796789 35.332098-20.934978.959417-4.36534 1.976864-8.820472 4.205189-12.760076 1.423652-2.357415 2.696427-4.799204 3.396647-7.481339 3.292195-8.646308 2.820224-17.935089 4.228401-26.914244 8.158918.015481 16.093455-1.733906 24.078285-3.100518 5.783585-.618865 11.551697-1.54813 17.261778-2.627564 7.141471-.847601 14.155277-2.388378 21.188427-3.835492 2.313434 0 2.499128-2.434435 2.812486-4.187693 4.568839 1.017896 6.882273-4.005787 8.804977-7.249506 2.000076-2.995245 3.926648-6.026097 6.027308-8.955547 4.425701-7.148878 8.704393-14.397998 12.631042-21.8595983 2.723508-6.0222265 7.822348-12.4860572 8.696655-18.9413731.522264-.9366188.193431-2.0396616-.336569-2.8950035zm-248.242709 48.4874379c.054547-.065795.119927-.12385.189949-.178035-.07776 0-.162482 0-.251461-.00387.019344.058055.042555.119593.061512.181905zm-.750513-11.274258c.294402-3.669069-.243336-5.720728-1.4929-8.348679-.433672-.769808-1.667375-.127334-1.288637.669953.994622 1.89646 1.678981 3.997659 1.818638 6.146077-1.323068-1.853886-5.265577-8.882784-7.903589-6.471571-1.655769 2.291233 1.965259 3.72364 2.95137 5.461029 2.043018 2.682523 3.536305 5.61623 4.781613 8.6734.050679-.026706.108708-.046444.166351-.065409.01973-.007741.039073-.015481.062284-.023222.023212-.008127.046424-.015868.073504-.019351.069635-.023222.138884-.038704.216643-.050702.038686-.007353.076985-.015481.115672-.022835.066153-.011998.13927-.023222.21316-.027479.088979-.011224.181439-.018965.278154-.023222.119927-.007741.247979-.011224.379125-.011224.088978 0 .182212.003483.274672.007741.266935.00774.549731.034446.839877.069666.305621.038316.618592.08863.936206.150555.177956.034833.359395.073537.541606.11224.015475.004257.030949.008127.049906.011998-.672753-2.221567-1.497156-4.377338-3.013655-6.238965zm-58.342644 1.075563c.13192.004258.267322.007741.398855.004258.09246-.302273.185694-.603771.285891-.901786-.332315.301498-.595768.599513-.684746.897528zm85.145598 369.75155c.735038 3.463941.44876 7.02077.789198 10.527285-4.599788.251572-9.056437.762455-13.65313 1.230764-.119927-.212868-.263066-.325107-.417811-.367681-.22438-3.576181-.541607-7.148491-.843746-10.709191 4.704628-.603771 9.421248-.317366 14.125489-.681177zm-6.13563-426.8075014c.95168-3.5959195 1.555185-7.2916933 3.052341-10.7208017 2.050368 1.0058976 5.381249.6231224 3.826064-2.2838791-1.435258-1.1723216-3.942123-.5259773-4.897672-2.5346762-4.154897-3.8436203 1.299856-11.4522933 6.042783-7.6249284.808541 2.8950035-2.893727 11.5687901 1.226352 11.758049 1.442995.0154813 4.379277.9060432 4.274824-1.4204095 1.918835-7.6164136 2.63453-15.837372 6.429645-22.7962173.185694-.011224.286278-.2089976.255329-.3750346 5.153001-5.3371789 12.364107-.9950607 18.650613-2.2529165 5.841614-.7818057 8.789502 1.4324075 13.714254 3.8668423 3.764167 1.4204094 8.375561 1.3778359 11.188047 4.5433751.704088 2.1019738.909125 3.5533459.657665 5.5736558-2.472048-2.0594002-6.878405-4.2035606-9.400745-1.1692253-.835621 1.8581432 1.744748 2.473138 2.905333 3.2437198 1.895624.9168801 3.663583 2.0779778 5.563075 2.972023-.228249 1.2733371-.526133 2.5277096-.854965 3.7735674-.727301-1.3004294-1.682849-2.5308059-3.234166-2.6585267-.986498-.1780349-3.593947-.8282496-4.123948.3518126-1.648031.6618257-2.32504 2.7870214-2.15482 4.5518899-.572556-1.2234099-1.067739-6.9398807-2.081318-6.9820673-.932337 0-.758249 1.1688383-.735037 1.8229234.67314 5.8054883 2.154821 11.9434375.974892 17.7299612-3.288326.4214785-4.692635-4.0603585-5.466359-6.622127-.193431-.7005289-.135402-1.8813652-1.152848-1.8384046-2.344384.8398606.317226 8.0154442 1.845331 9.1223573 8.82432 7.0788254 8.274976-5.9877806 7.098916-11.4642913 1.106425 2.0942332 4.580445 3.9906927 7.184026 3.0695552-1.09482 5.1436626-2.874384 9.9970508-4.228401 15.1132342-1.446864 3.9326377-1.965259 8.5882523-4.843511 11.7777876-20.163243-.5190107-17.025793-9.950607-22.387699 7.2371217-12.000456-1.5403896-24.128577-2.0009583-36.114333-3.792532 2.003558-7.4852096 4.778519-14.5059801 6.786332-21.971838zm61.774109-12.3850417c-.673139.665696-1.334673 1.9390331-2.429492 1.6990729 2.60358-2.9882784-2.615187-5.325955-3.667451-1.8384046-1.895624-5.5306952 4.506941-2.8872629 6.236214-.3289777-.046424.154426-.088979.3134964-.139271.4683094zm153.108337 17.6293328c4.201321 4.0286218 7.655997 8.738808 11.068119 13.4377702-12.097171-13.5151767-24.263978-26.9335954-35.811806-40.9170815 8.762422 8.6617885 16.956157 17.9153498 24.743687 27.4793113zm-415.819681 273.2175033c-.3477889.890175-.7079573 1.776479-1.0716075 2.658913-3.5359178-.688918-6.9557771-1.942903-10.3365633-3.200759 1.6519004-5.503603 3.7599109-10.891096 5.6129794-16.348255 3.5517792 1.66811 7.2114928 3.080779 10.8479948 4.551503-1.8221196 4.052231-3.3695673 8.232182-5.0528034 12.338598z"/><path d="m199.022068 545.26676c-.011909-.102644.007684-.197685.061084-.285123-.011141.095041-.026508.193884-.061084.285123zm10.314744 4.603801c-2.120268.285124-4.491019-1.68033-4.802201-3.718016.707268-2.102313 2.409168-4.409916 4.917838-4.090577 5.36694-.034215 4.317755 7.321981-.115637 7.808593zm9.020839-10.059171c-.51518-.893388-1.148687-1.72595-1.878621-2.467272-1.268166-1.296363-2.827536-2.315206-4.568238-2.90066-4.736891-1.102479-9.612086.862975-12.81573 4.330081-.622366.665289-1.175579 1.391405-1.655799 2.159338-.729935 1.159504-1.287374 2.425454-1.629291 3.752231-.434119 6.223304 4.452985 11.724294 10.676253 12.366773 5.782235 1.121487 10.346247-3.265619 12.674354-8.067105 1.259713-3.071735.783719-6.413387-.802928-9.173386z"/><path d="m198.674479 542.784392c-.280882-.412962-.569059-.833571-.857236-1.261827-1.065162-1.58302-2.134336-3.276928-2.914968-5.051134-.496103-1.127998-.875475-2.286585-1.061149-3.471938-.0259-.156772-.047787-.313545-.066026-.474141.266291-.367077.539877-.458847.813463-.35943.342894.122359.685789.546792 1.018105 1.097408.783915 1.300064 1.506182 3.315165 2.020888 3.785482.495738.837395 1.15271 1.552431 1.761894 2.30188.513977.62709.991841 1.273298 1.313213 2.038042.521273 1.280947-1.108935 2.401296-2.028184 1.395658"/><path d="m220.883534 533.764019c-.085558.295357-.185996.752177-.308754 1.299573-.349674 1.551611-.866744 3.859337-1.617798 5.418825-.587749 1.224749-1.324295 1.98874-2.235678 1.571302-1.68922-.984525-.52079-2.685784.416632-4.127129.308755-.472572.591097-.917577.743986-1.299573.181905-.275667.472432-.945144.814665-1.626435.665868-1.335016 1.528519-2.701537 2.183599-1.236563z"/><path d="m194.144696 535.655242c-.350273.280154-.860072.455718-1.55719.489336-2.847488-.14568-4.930468-1.849018-5.672513-4.560912-.030458-.108326-.061297-.227859-.091756-.354862-.137063-.679841-.163333-1.572599.571097-1.822871.164095-.302566.350653-.549102.552441-.739607 1.103739-1.049645 2.714231-.489336 4.092859.694783.67732.582721 1.301719 1.318593 1.777633 2.088083.209783.33245.388346.668635.537212 1.001085.566908 1.292445.631632 2.543801-.209783 3.204965"/><path d="m351.021064 537.795838c-.261024-.327659-.525724-.655318-.783072-.991067-1.448499-1.856735-2.819794-3.859097-3.713158-6.096078-.242642-.562279-.14338-1.120513.106615-1.403676.180143-.202258.441167-.262936.709544-.076858.136027.093039.27573.254846.40808.489466.172791.060678.433815.194169.272053.416653 1.022038 1.549302 2.3051 2.843758 3.635954 4.05731.441168.404517.886012.800945 1.330855 1.193326 1.257327 1.440083-.533077 3.632567-1.966871 2.410924"/><path d="m365.433586 542.384909c-.591471.751595-1.285463 1.634912-2.338281 1.654283-.989728.089107-4.305908-2.080445-3.872163-3.200089.788628-1.716271 2.570927-3.281448 4.503065-3.215587.425859.011623.859604.108478 1.289407.294439-.059148.123975-.098579.240201-.126181.356427-.394314 1.638787 2.026774 2.533727.544153 4.110527zm7.898108-6.349815c-.007887-.007749-.01183-.015497-.015773-.023246-.828059-1.057656-1.533881-2.216042-2.37377-3.24658-.682163-.844576-1.458961-1.603919-2.468405-2.154055-7.188342-3.161348-13.355411-.929809-16.612444 3.165222-.61513.77484-1.127738 1.615541-1.522052 2.502733-2.464462 5.524611-.354882 12.715127 9.47142 15.709884 8.11498 1.840246 18.134496-8.259796 13.521024-15.953958z"/><path d="m209.327727 549.606631c2.013061.136268 3.332363-2.336592 3.379588-4.236326-.356436-1.639222-2.214329-2.080089-3.106732-3.26642-4.980368.64126-5.831918 6.292367-.272856 7.502746zm.042727 2.601112c-3.65057-.264519-8.132451-4.120098-6.012946-8.316345 1.108664-2.829562 3.918179-5.282383 6.910972-4.617075 2.507049-.785544 5.121667 2.528971 5.58942 4.957744.151045 3.707287-2.798271 8.055834-6.487446 7.975676z"/><path d="m367.565781 540.159838c-1.302606-.4815-2.380069-1.585116-3.646491-2.198709-.454303-.268447-.595017-.916129-.337712-1.380585.872424-1.695904 4.145018 2.032528 4.466649 3.055183.148754.042611.462344-.055393.42214.217315-.088448.225836-.349773.059655-.514609.149137-.10051.106527-.249264.166181-.389977.157659"/><path d="m379.518072 525.656625c-.007414.059721-.018536.119442-.029657.175182-.533832 3.053752-3.162212 5.458531-4.426355 8.245527-.374423.67286-.826697 1.560717-1.390187 2.209689-.648753.740545-1.445794 1.166557-2.45785.601195-1.227071-1.210352-.74514-2.595887.226137-3.937627 1.060249-1.473126 2.713645-2.898476 3.34757-3.997348.544953-.449901 1.497695-1.927009 2.454143-2.918383.856355-.887857 1.71271-1.381554 2.276199-.378235"/><path d="m351.405622 477.911647c-.231714-.024043-.471152-.068121-.71059-.120213-.003862 0-.011586 0-.015448-.004007-.308953-.064114-.621767-.140248-.93072-.176312-.057928-.008014-.115857-.016029-.173785-.020036-.223991-.020035-.451844-.016028-.671972.024043-.003862-.036064-.003862-.072128-.007724-.108192-.007724-.168297-.01931-.340602-.030895-.5089-.007724-.092163-.015448-.180319-.023172-.272482-.177647-2.235958-.513633-4.479929-.436395-6.7239.011586-.356631.034757-.717269.069514-1.0739.050205-.480851.278057-.801419.552253-.953688.108133-.060107.220128-.092163.335986-.100178.065652-.004007.131305-.004007.196957.008015.123581.020035.2433.072127.347572.152269.208543.156277.366881.432766.397776.825461.003862.044078.007724.092163.007724.140248.007724.076135.015447.15227.027033.228404.027034.256454.057929.508901.084962.761348.305091 2.45234.718315 4.888651.934582 7.344998.015447.184327.030895.364646.042481.548972v.004007c.003861.008014.003861.016028.003861.024043"/><path d="m352.578954 506.970512c-.389585-.115553-.71424-.412139-.826786-.943683-.199121-2.026031-.432872-4.025099-.64498-6.016464-.03463-.281179-.064931-.562358-.095232-.843537-.064931-.608579-.129861-1.217159-.186135-1.82959-.030301-.269624-.056273-.5431-.082246-.816575-.138519-1.506042-.259723-3.019787-.341969-4.552792.835444.246514 1.696859.415992 2.571261.546952.138519 4.013543.523776 7.996272 1.168755 11.955891.038959.258069.082246.512285.125533.770354.601693 1.186345-.731554 2.018327-1.688201 1.729444"/><path d="m377.51004 491.967871c-.152234 1.505354-.291783 3.010707-.431331 4.516061-.084574.986402-.173378 1.968843-.262181 2.955246-.177607 1.949036-.359443 3.898073-.575108 5.839186-.029601 1.089401.139548 2.788866-1.425084 2.753212-.054973 0-.109947 0-.169149-.007922-1.040269-.233726-1.213647-.958673-1.13753-1.802463.071889-.84379.397501-1.806424.346757-2.495717.114175-2.107495.241037-4.21499.342527-6.322485.012686-.21788.021144-.431798.03383-.649678.06766-1.457816.122633-2.915632.143777-4.37741.004229-.035653.004229-.067344.004229-.102997.795002-.122806 1.581546-.289187 2.376548-.293148.190293 0 .380587.007923.57088.02773.063431-.007923.122633-.023769.181835-.039615"/><path d="m378.436203 476.456766c-.148423-.003887-.285428.042754-.399599.147697-.015223.015547-.034251.031094-.049474.050528-.019028.015547-.030446.034981-.045668.054415-.468101-.260414-1.073208-.307055-1.670703.007773-.254981.066075-.513769.128263-.768751.190452.441461-3.02779.27401-6.036146.738306-8.939559.022834-.151584.049474-.299281.076114-.450865.064697-.357582.140811-.719052.235953-1.072747.019029-.097169.045669-.194338.072308-.291507 1.236853-.921164 1.552726.54026 1.670703 1.803458.045668.466412.064697.905617.091337 1.185464.228342 2.433114.087531 4.877889.049474 7.314891"/><path d="m374.322231 507.664017c-.129648.196589-.346999.353132-.652053.436864-3.145875.487831-6.276496 1.139487-9.487194.873728-3.813181-.156543-7.775076-.262118-11.359466-1.274186-.301241-.050968-.552911-.156543-.762636-.294884-.99524-.662577-.907537-2.115149.613922-2.384549.255483-.00364.507153.003641.762636.021844 1.166834.061889 2.329854.294883 3.462369.557001 5.31176.709904 10.913323 1.860312 16.190765.41138.019066-.00364.038132-.007281.053385-.010921 1.094382-.218432 1.66636.9611 1.178272 1.663723"/><path d="m354.409708 470.883534c-1.310501-.081367-7.118049-.502995-4.204524-2.426214 5.686638.284785 11.451283.32177 17.137922-.380945 2.613201-.207115 5.253705-.39204 7.753798-1.172423.936072-.244101 1.774637.78778 1.244196 1.575559-6.724119 2.333752-14.696334 2.36334-21.931392 2.404023"/><path d="m348.658114 469.909418c-.594131-1.937144-.820069-3.965402-1.259392-5.938199-.238489-2.828468 4.259339-2.844314 3.995746.02773-.380747 1.311237-.079497 9.697606-2.736354 5.910469"/><path d="m378.420364 465.251048c0 .854595.217257 1.908468-.373529 2.45265-.167707.160955-.404022.275923-.731813.333407-.457382.030658-.792796-.126465-1.032922-.421549-.080042-.099639-.152461-.214607-.217257-.344904-.171519-.360233-.270618-.835434-.320168-1.371951-.167707-1.716855.160084-4.108189.167707-5.794386.003812-.628491-.038115-1.161176-.167707-1.525241-.52599-.095807-1.059603-.172452-1.600839-.222272-5.702038-.597833-11.884328.846931-17.109926-1.429435-.381152-.164787-.758493-.348736-1.128211-.55951-.373529-.206943-.743246-.440711-1.105341-.697473-1.048169.40622-2.073468.789447-3.10258 1.115189-.179141.061317-.354471.114968-.533613.16862-.034303.191613-.007623.624659.04955 1.195667.015246.137962.030492.28742.045738.444543.095288.892918.228692 2.004275.297299 3.023657.102911 1.567397.053361 2.912522-.537425 2.889529-.038115.532685.316357 1.954455.354472 3.035154.015246.364065-.007623.689808-.091477.927408v.003832c-.099099.268259-.278241.425382-.579351.398556-.144838-.011497-.323979-.068981-.533613-.176284-.026681-.011497-.053362-.026826-.080042-.042155-.019058-.030658-.034304-.057484-.04955-.088142-.114346-.20311-.202011-.413885-.266807-.636156-.25156-.82777-.213445-1.75901-.243937-2.617438-.003812-.751124-.304922-2.034933-.598409-3.437542-.331603-1.594222-.647959-3.3494-.49931-4.660035.04955-.456039.156273-.858427.335414-1.180338.262996-.467536.682263-.774117 1.314976-.839266 1.280671-.195445 2.599458-1.027047 3.88013-1.295305.846158-.180117 1.673258-.107304 2.458432.55951 6.121305 2.720909 13.138319.321911 19.5493 1.75901 3.689554.249097 2.20306 6.457368 2.450809 9.03265"/><path d="m363.486722 462.851406c-4.37706-.426283-13.41065.1094-13.076072-5.900054.440855-.324427.641601.049042.76756.414966 1.554801 2.927392 5.148555 3.349902 8.226667 3.398943 5.76654.629993 11.946382-.267841 16.768232-3.232957 1.357991-.01509 1.857889 1.810758.661283 2.440751-2.011401.818613-3.845672 1.863572-5.955478 2.320034-2.471937.456461-4.91632.50173-7.392192.558317"/><path d="m348.393614 458.331453c0-.669339 1.01484-.665578 1.003888.00376.003651.669339-1.01119.665579-1.003888-.00376"/><path d="m349.941938 456.729833c-.488978.451307-1.230733.910464-1.50423.945783.037295.192297.07459.384593.107741.580814.049727.247238.091166.4984.136748.745638.161612.96933.29836 1.93866.410245 2.911915.261065 2.20552.406101 4.418889.526273 6.647956v.019622c.004144.188372.041439.412064.078734.643604.05387.341424.111885.698546.05387.996801-.058014.321802-.244489.572965-.696172.655377-.261065.031396-.50141-.058866-.675453-.219767-.128461-.121657-.219626-.282558-.252777-.463081-.534561-2.762787-.712748-5.560894-1.044259-8.347227.070446-1.165551-1.073266-3.610461-.567712-4.874122.169899-.415988.517986-.706394 1.156144-.773109.219626.109883.435108.172674.642302.192296.592575.062791 1.143712-.184447 1.665841-.56904.679597.023547.443396.463081-.037295.90654"/><path d="m350.367956 456.459615c-.23616.033984-.518028.157176-.82275.318599-.582782.301608-1.241743.73915-1.832143.943054-.521837.178415-.982729.174167-1.279833-.271871-.049518-.14868-.057136-.284616-.03809-.407807.15617-.934558 2.026402-1.342364 2.651083-1.775659 1.032247-.203903 3.329091-2.098506 4.19374-1.219173.060944.06372.110462.135936.15617.220896.243778 1.622731-2.121628 1.533523-3.028177 2.191961"/><path d="m352.707265 460.655344c-1.026346-1.08292.88074-2.056417 1.512884-2.72428.546911-.373551 1.470267-1.528163 2.134373-.939538.443922 1.015002-1.317558 1.679093-1.722414 2.535619-.5185.539574-1.072514 1.788517-1.924843 1.128199"/><path d="m350.427294 468.166263c.401732-.929651-.942332-11.198069 1.418459-9.031444h.00496c-.500925 1.114045 2.335993 12.680901-1.423419 9.031444"/><path d="m347.354434 449.461279c-2.346484-1.476662-2.457611-4.769885-1.081349-6.828149 1.017237-1.193415 2.12423-2.439703 2.222535-3.999452-.025645-1.676824-2.521722-2.292415-2.846554-3.965462-.316284-1.227406 1.470292-1.223629 1.679723-.109523 7.710485 6.763946-1.850687 7.787413.824902 13.274858 1.36344 1.000808 1.183927 2.688962-.799257 1.627728"/><path d="m354.09711 439.015406c-.657229 2.833736-5.006037 5.085994-2.983137 8.18721.495056-.104666.499324.655132-.004268.550466-.315811.116296-.631622-.050395-.827938-.275233-3.657437-5.810903 5.509629-6.946724.960238-13.695745-.174977-1.062167 1.570521-1.488584 1.993026-.472935 1.062662 1.918877 1.55345 3.578028.862079 5.706237"/><path d="m356.991715 431.640099c-1.191951.706592-2.474679-.996374-1.448496-1.941142.524932-.361236.994608-.782015 1.109066-1.44891.142087-.905073-.315748-2.365892-1.416921-2.310317-1.460338 2.318256-3.540331-.412841-1.184058-1.325852 1.243261-1.782358-.588081-5.021565-2.553616-3.032787-.686753.742318.015787 2.449253-1.128802 2.552463-.963033-.242147-.331536-3.719531-3.757408-2.091988-1.835288 1.500515-.327589 4.652391-1.736617 4.894537-6.397856-2.941486-6.421537 6.053666-.398633 5.632886.805159.035727.631498 1.254399-.14998 1.063858-.923565-.079393-1.890545.277873-2.818056-.015879-5.241427-1.647391-3.611375-10.725904 2.379955-8.760944-.1263-3.263025 3.923176-6.351386 6.374174-3.401961 1.815555-3.957708 6.729392-.551777 5.561122 2.953395 3.082496.742318 3.386404 5.430435 1.16827 7.232641"/><path d="m347.059117 429.699775c-.240596.08126-.489395-.104962-.563214-.402916-.098426-.507878-.317149-1.848674.393703-1.540562.333554.423231.842087 1.645523.169511 1.943478"/><path d="m350.401524 427.716622c0 1.34058-2.026516 1.325171-2.007821-.011557 0-1.34058 2.022777-1.325171 2.007821.011557"/></g><path d="m348.680843 476.907631c.09401 0 .203061.028922.327154.082635.669349.256168 1.695934 1.074255 2.128378 1.065992.067687.041317.19554.086767.364758.128084.011281.004132.022562.008264.037604.008264.442121.111491 1.144236.228952 1.830604.369366 2.878688.205099 5.778401.194976 8.649061.503876 4.257876-.244961 8.53493-.723219 12.696907-1.706953.257007-.062213.51785-.124425.774857-.190526.513019-.268291 1.031605-.27418 1.465654-.108999.190482-.116008.422077-.165975.647558-.148258l.069428-.003258c.134257.003889.272351.050548.410444.13609l.015344.033123c.13237.087468.244015.20901.318983.365111.054473.125245.092184.272083.096374.440516v.025913c.002173.170208-.029458.319149-.086228.446586.029199.276593.039119.562608.039119.850633 0 1.007064-.118913 2.064675.011508 3.00175-.042962.843756-.020364 1.72897.003882 2.625427l.019695.770441c.045648 2.05809.004502 4.129814-.88666 5.854342.095898.349945-.514014.637678-1.465323.867086-.609911.151643-1.361752.279956-2.159624.388828-2.347586.326615-5.086435.501588-5.776901.629901-6.275571.905968-12.877195 1.049834-18.957134-.999287-1.219823-1.28702-.897606-3.561662-1.227495-5.233621.003836-2.243536-.939802-4.833128-.540865-7.084441.045137-.271.110702-.536425.200251-.795554-.473695-.805317-.447646-1.966329.546298-2.310838.117315-.016888.233262-.015672.344178-.000126.027837-.00812.059916-.012103.094671-.012103z" fill="#374b47"/><path d="m378.476406 476.908635c-.002008-.048193.074297-.051205.075301-.002008.002008.048192-.074297.051204-.075301.002008" fill="#d94a3d"/><path d="m255.063764 133.39162c-.747356-.304007-2.643342.067982-2.512816-.969308-.264409-.316611-.330417-.782169-.112998-1.143082-.692535-.233352-.974098-1.100306-.582893-1.724361-.521732-.333796-.743999-1.075863-.428126-1.630791-.882357-.397959-1.103133-1.689224-.312144-2.302585-1.237761.013367-4.199587-.470905-2.716436-2.258665-.114863-.403305.004102-.867336.294616-1.156066-1.813195-4.032675 12.055026-.025207 8.692298 2.207105.511663.050796 1.019597.125652 1.532751.153914 0 .001909-.000373.004201-.000373.00611 1.05577-.008402 1.536853 1.494446.686195 2.134541.513154.551108.374796 1.531875-.289395 1.898134.117473.210055.170802.464031.140222.706931 1.633442 1.614368-.761154 2.017674-1.915006 2.222764 4.190264-.338761 1.292955 2.677247-2.475895 1.855359" fill="#374b47"/><path d="m192.928958 119.464162c-1.029553-.450927-5.133808-.481818-4.413122-2.100562-.365811-.200035-.556637-.724422-.290763-1.073637-1.55602-1.388948 1.13477-2.069671 2.100211-2.527757.615469-1.742306 1.337664-3.446564 2.105491-5.126712-1.90222-1.527579-.049781-3.862081 1.700458-4.519071-.015839-.040686-.029415-.082124-.040352-.124316-1.742319-1.354667.237966-2.904472 1.856588-2.268577.860977-.803156 1.999142.103973 2.741702.649833.670152.588428 1.926356 1.029938 1.804922 2.097171.264742.313051.392587.744389.250034 1.127508.230424.693909-.427283 1.437921-1.14797 1.295146.000755.000753.001132.001507.001886.00226-.620371-.192501-1.224149-.429832-1.874313-.525517.049026.490483-.310374.998294-.148588 1.474462.265874.151816.054306.586921-.236834.452058-.519302-.18007-.766696-.666409-.925466-1.155762-.655444 1.528709-.973738 3.234851-1.66086 4.775615 1.257336 1.195316-2.047414 2.48029-2.406437 3.675983.897935.031267 1.828681-.063665 2.698709.192878.714653.323598.347332 1.364838-.383914 1.316619.604532.068938.950356.817848.403147 1.206994-.443499.280653-1.035963.134864-1.529997.102843.382782.433222-.035827 1.176481-.604532 1.052541" fill="#374b47"/><path d="m204.145932 120.481024c-1.55536-.209033-3.112614-.364812-4.668732-.560407-.156824.123927-.304936-.068184-.462896-.079134.000379-.000995.001136-.001493.001515-.002488-1.412173-2.128151 4.385768-1.14321 5.177085-1.101901.868971.043798.81556 1.790216-.046972 1.74393" fill="#374b47"/><path d="m16.602876 377.28735c-4.5015991-3.290775-8.78706179-15.020232-5.265902-19.841781.3950078-.09713.719585.26808.6744945.660486-.9498821 4.009539-.1863244 8.205569 1.5356863 11.861554.0033538.007771.0033538.011656.0074529.019426 0 .003885.0037265.003885.0037265.003885 0 .003886.0037265.007771.0037265.011656.890631 2.323357 2.2880645 4.339782 4.1956543 5.866671.8649182.823665-.2306697 2.175719-1.154839 1.418103" fill="#374b47"/><path d="m14.1130765 388.36027c-8.82923262-5.455488-13.72995275-11.510397-14.10296303-21.833335-.2142825-2.29525 3.0674143-.185896 1.24204486-.056907.99561999 4.123864 1.92814568 8.448799 4.53921761 11.96186 2.90471833 2.936404 6.18681196 5.618622 9.69033076 7.887316 1.3773603.891544.063888 2.856734-1.3686302 2.041066" fill="#374b47"/><path d="m129.345774 118.359388c-6.596027.803715-12.949063 3.388995-19.564293 4.286476-1.360357-.045057-4.785353 1.842454-5.330515.125428-.732892-1.42436 10.860125-2.272725 12.432119-2.922191 3.327016-.320674 9.790181-3.39346 12.584185-2.034046.090141.186721.066626.434736-.121496.544333" fill="#000"/><path d="m140.542216 126.192713c-.133338.255099-.387502.027401-.606474.069853-8.508232 1.099898-16.9191 2.921098-25.380801 4.349422-2.490805.127357-15.6838633 3.37688-16.1573901 1.126527-.0465315-.478166.3210285-.910407.8019847-.956718 4.9968614-.301025 9.9432804-1.096039 14.9018214-1.744786 5.572053-.829362 11.171087-1.554909 16.727499-2.461842 3.089459-.174054 6.670823-1.791098 9.560471-.694673 0 0-.007821 0-.01916-.003859.144677.026629.234221.181387.172049.316076" fill="#000"/><path d="m276.348273 8.14628476c-11.488601 1.16329662-23.018939 2.28519484-34.537185 2.89789194-1.088283-.0666515-1.151084-1.73914915-.054999-1.88362976 3.338961-.0376726 6.66622-.2198258 9.993869-.56343299 8.347013-.62470271 16.722111-1.40299369 25.081996-1.5690015.616304.40197901.089715 1.08919339-.483681 1.11817231" fill="#000"/><path d="m270.941263 16.1808277c-.093023.1483429-.352713.0455625-.321705-.1059592-6.749211.4803484-13.597647.0388517-20.310811.7735023-7.337195 1.3986615-14.810048 1.5399405-22.244141 2.136844-.744185.007064-1.992632.4128877-2.158911-.5474559-.054263-.801758.965115-.8409629 1.612013-.8900574 6.37208-.6431724 12.794935-.667543 19.11624-1.7059432 6.910838-1.3174262 13.977103-.5651158 20.980965-.5898396.710076.0812354 4.213945-.2440594 3.32635.928909" fill="#000"/><path d="m266.630892 24.4372259c-.133433.1652294-.396373-.054683-.255092-.2159783.098112-.121955.191908-.239976.215454-.3898626-6.985185.444939-13.982536 3.2770487-21.019524 3.2770487-.769198 0-1.538397-.0314722-2.307595-.1062188-1.153405-1.6286893 1.413206-1.4709346 2.394326-1.4394624 2.0839-.0708126 4.159951-.2561055 6.231685-.4842793 4.112857-.3934033 8.0809-1.345439 12.154512-1.8962035.914404-.0983508 4.195271-.4170074 2.586234 1.2549562" fill="#000"/><path d="m451.556587 32.1728448c-9.963386 1.0255691-20.030317.6690393-30.028219 1.3278919-5.108249.178265-10.063096 1.7208025-15.19819 1.6043845-1.399783.290681-2.56563-1.2878732-.87055-1.7753733.736324-.0436567 1.476483.0181903 2.212807-.0109142 7.298046-.6839553 14.527062-2.0595058 21.901809-1.8703267h.08437c.03835 0 .072865-.0032742.118886-.0032742 4.130318-.1640765 8.172431-.1022295 12.295079-.0876773 1.108321.2946829 11.46288-1.138349 9.484008.8152893" fill="#000"/><path d="m442.771084 36.9978468c-.053867.0785291-.176994.106956-.261643.0533003-.650261-.5681816-1.439039-.469043-2.243208-.3340155-2.80882.4654897-5.648421 1.1619474-8.461089 1.5282984-7.079765 1.1406273-14.305742.9274259-21.404746 1.9081522-.346292.0533003-.688738-.2028967-.761844-.5081299.061563-1.4497693 3.012748-.8780343 4.136276-1.2223545 6.571869-.5226986 13.193757-.3308174 19.727149-1.2721014 2.339401.0355336 7.953193-2.1750092 9.269105-.1531496" fill="#000"/><path d="m269.868027 155.562822c-1.825138-.798791.069397-3.188941.123372-4.517796.678547-4.021954 1.76191-7.915184 2.910813-11.826303.755655-1.250298 2.459734-13.852448 4.206222-11.390741-.890593 6.751999-2.702623 13.367495-4.194656 19.993492-.570596 1.540025-.921436 8.51486-3.045751 7.741348" fill="#000"/><path d="m166.906726 348.320093c-1.066662-.788145 1.789514-3.218951 1.408448-5.226647.0409-1.302514 1.650208-.655405 1.318546.431406-.066413 1.240291-1.067067 5.475535-2.726994 4.795241" fill="#fff"/><path d="m152.674184 352.848274c-.751223-1.657227 5.322686-1.300228 8.47479-4.678565 1.182608-.695209 1.656865-3.39337 3.268582-2.66434.489054.127768.147209.687692-.257617.477251-1.389005 3.750368-5.084798 6.144141-8.892136 7.038517-.831278.105221-2.147058.92444-2.593619-.172863" fill="#fff"/><path d="m260.212307 364.416442c-1.975816-.963797-4.676421-2.751067-5.192227-4.914993.405019-.25849.726588.339729 1.020461.54652 1.378719 1.262906 2.888007 2.411338 4.597288 3.157265.768672.295417.344949 1.488161-.425522 1.211208" fill="#fff"/><path d="m264.344823 369.477912c-2.778512.003894-8.624514-1.525724-9.324743-4.592764.089997-.437034.595043-.534586.922753-.312167.333407-.015608.643269.300461.430239.639942 3.441147 2.747069 7.821376 2.676832 11.93807 2.31784.408213.003902.746177.401915.765163.80383-.265813 1.685701-3.558865.881871-4.844263 1.143319z" fill="#fff"/><path d="m270.387527 379.155444c-3.264254-3.345866-8.571839-2.867885-12.128159-5.822302-.440184-.288436-.191681-1.10018.325403-.762297.188271.107134.523523.032965.572769.325522 4.071509 2.031418 10.317041 1.046613 12.92708 5.517382.079552.972444-1.132658 1.503992-1.697093.741695" fill="#fff"/><path d="m254.493972 237.924164c-1.949738-.183358-6.445907-.846327-6.493806-3.39478-.053468-.291706.161148-.575836.452625-.593641.968742.12085-.070549 1.026655 1.432135 1.50816 1.844287 1.286159 7.256844.206846 7.141367 1.596429-.025992 1.249412-1.716928.833447-2.532321.883832" fill="#fff"/><path d="m264.530817 248.74359c-3.12145-3.508462-3.461043-2.741998-7.567742-4.056222-2.972512-.887211-5.765675-2.264607-8.439922-3.847514-1.082331.079566-.313861-1.34461.558321-.722083 3.29339 1.468556 6.645264 2.794375 10.210017 3.373321 2.732731.208309 4.863863 1.843192 6.547403 3.957865.740009.836034-.512314 2.086686-1.308077 1.294633" fill="#fff"/><path d="m260.659442 257.793999c-.552319-.847954-4.69432-4.035828-3.372388-4.76984.207021-.025182.536516-.040044.524269.26545 1.070267 1.131155 5.020655 2.583491 4.098542 4.444529-.323569.368657-.898013.402922-1.250423.059861" fill="#fff"/><path d="m192.318411 214.837604c-1.131009-.009392-5.619255-1.383394-2.449994-2.096027.4841-.104097.524999.587795.044831.603449 7.362565 2.065502 7.052678-4.033952 9.539245-3.468463 1.061401.87504-.603257 2.105419-1.13848 2.830184-1.457019 1.72934-3.811451 2.274088-5.995602 2.130857" fill="#fff"/><path d="m194.587663 220.882444c-.53777-.017397-4.143101-.248695-3.801882-1.080971.206397-.268068.693041-.192155.980104-.176339 10.958389 1.632921 13.21778-8.045205 21.702426-11.793809.486644.168037.524515.925586.056428 1.146209-6.966393 3.844681-9.927915 12.01443-18.937076 11.90491" fill="#fff"/><path d="m216.896917 214.703235c-.155271-.374329.344544-.463237.542422-.651025 1.861606-1.459509 3.646601-3.136718 5.884707-3.975946 1.06436-.803914 2.317585.641885 1.027079 1.308282-2.144288.602416-4.146006 1.612813-6.02359 2.812244-.372813.144995-1.125813 1.010813-1.430618.506445" fill="#fff"/><path d="m320.365118 14.0420834c-.89406-.1850934-.378438-1.0712864-.458856-1.5853483.033113-1.3936445-.359516-2.69085373-.629154-4.0409468.014192-.64510495 1.698242-.39701757.960287.15709608.468318.71587597 2.029375 5.78494662.127723 5.46919902" fill="#fff"/><path d="m323.700298 14.0343002c-.843956-.3397797-.096798-1.9378308-.20267-2.7725409.133097-.6900323-.157297-1.6550689.23897-2.19266568.704809-.52440898.801607 5.39070708-.0363 4.96520658" fill="#fff"/><path d="m326.735985 16.0640637c-.957338.0331678.050093-4.2114619-.420227-5.6859564 0 .0012595.002783.0020992.002783.0033587.790361-1.55930309.979602 2.6886854.962904 3.4145968-.016698.7817508.242118 2.2667414-.54546 2.2680009" fill="#fff"/><path d="m282.929119 24.03792c-.803241-.2519466-4.39445-.4032167-3.731457-1.8622584 1.393984-.4073052 2.949466.7512404 4.432698.597926 1.121987.4819181.148749 1.5883368-.701241 1.2643324" fill="#fff"/><path d="m282.054234 26.0944775c-.576021-.0261523-1.166091-.1464533-1.636742-.4550514-.210739.1366078-.407429-.1166088-.224788-.258447-.007025-.0267677-.01405-.0544585-.017562-.0833799v.0024614c-.038635-.5658144 1.889629.2738308 2.514822.0526124.221277-.0095379.432016.1461457.442566.3464421.003499.4941261-.69194.3996699-1.078296.3953624" fill="#fff"/><path d="m281.414845 29.0576382c-.669761-.0978544-1.429107.0168715-2.039144-.1447878-.58444-.3306806-.08532-.7751669.554579-.7276201 1.160349.1901874 3.745539-.4951006 4.206266.4033813-.140777.8641256-1.889833.3871234-2.721701.4690266" fill="#fff"/><path d="m137.550201 494.543391c-.14686 1.047669-1.565477.392876-2.262578.539708-12.841944.984174-25.779985.658762-38.6180536 1.904853-.4646055-.119053-.3173577-.845279.1394979-.785752 13.3650607-1.293712 26.8111067-1.257996 40.1719047-2.226296.305733 0 .565741.25398.569229.567487" fill="#000"/><path d="m141.018144 499.1492c-11.102723.462617-22.136726 1.75865-33.258261 1.58561.018812.22248-.318647.42024-.330164.105943.080621-.766319 1.531807-.515588 2.141843-.614468 3.536209-.116537 7.056679-.384926 10.588281-.512057 6.450099-.480274 12.853361-1.433759 19.322655-1.543233.679524.067097 1.731441-.579154 2.061605.240137.099433.321359-.14627.706285-.525959.738068" fill="#000"/><path d="m147.072714 521.455369c-14.97903.748724-29.973009 2.521128-44.979253 2.165801.118821.583751-.708706.659893-.674209.059221-.069376-.54568.12227-.901007.663094-.841786 6.734047.143823 13.487643-.427238 20.214408-.850246-.019164.00423-.037946.00423-.057494.008461 3.480287-.368017 7.025733-.799486 10.502186-1.095591 4.710652-.431468 9.46385-.097292 14.151504-.812176.793414-.131132.985059 1.256334.179764 1.366316" fill="#000"/><path d="m153.0717 527.232767c-9.943503.760322-19.910581.870368-29.861814 1.24386-4.826831.300127-9.657526.650276-14.495564.556903-.050626.146729-.32501.083368-.274384-.07003 12.895638-1.477293 26.53018-1.560661 39.688608-2.401017 1.592584-.106712 3.184781-.230098 4.757656-.450191.830493-.113382 1.027972 1.033771.185498 1.120475" fill="#000"/></g></svg>