<svg xmlns="http://www.w3.org/2000/svg" xmlns:xlink="http://www.w3.org/1999/xlink" width="115px" height="78px"
    viewBox="0 0 115 78" version="1.1">
    <script xmlns="" />
    <title>Group 24-2x</title>
    <defs>
        <rect id="path-1" x="0" y="0" width="115" height="78" />
        <polygon id="path-3" points="0 0 71 0 71 45 0 45" />
        <polygon id="path-5" points="0 51 83 51 83 0 0 0" />
    </defs>
    <g id="Homepage-Rd2" stroke="none" stroke-width="1" fill="none" fill-rule="evenodd">
        <g id="Corvee---Homepage1b" transform="translate(-521.000000, -1051.000000)">
            <g id="Section-2" transform="translate(202.000000, 880.000000)">
                <g id="Icons" transform="translate(0.000000, 171.000000)">
                    <g id="Icon-2" transform="translate(293.000000, 0.000000)">
                        <g id="Group-24" transform="translate(26.000000, 0.000000)">
                            <mask id="mask-2" fill="white">
                                <use xlink:href="#path-1" />
                            </mask>
                            <g id="mask" />
                            <g id="Group" mask="url(#mask-2)">
                                <g transform="translate(17.000000, 27.000000)">
                                    <g id="Group-3" transform="translate(5.000000, 0.000000)">
                                        <mask id="mask-4" fill="white">
                                            <use xlink:href="#path-3" />
                                        </mask>
                                        <g id="Clip-2" />
                                        <path
                                            d="M69.8077015,45 L1.19229848,45 C0.533982193,45 0,44.466614 0,43.8090327 L0,1.19044437 C0,0.532863086 0.533982193,-0.000522927464 1.19229848,-0.000522927464 L69.8077015,-0.000522927464 C70.4660178,-0.000522927464 71,0.532863086 71,1.19044437 L71,43.8090327 C71,44.466614 70.4660178,45 69.8077015,45"
                                            id="Fill-1" fill="#E7EBEE" mask="url(#mask-4)" />
                                    </g>
                                    <mask id="mask-6" fill="white">
                                        <use xlink:href="#path-5" />
                                    </mask>
                                    <g id="Clip-5" />
                                    <polygon id="Fill-4" fill="#FFFFFF" mask="url(#mask-6)"
                                        points="10 41 72 41 72 5 10 5" />
                                    <path
                                        d="M81.9683587,51 L1.03164134,51 C0.462237294,51 0,50.5139997 0,49.9153233 L0,44.0846767 C0,43.4860003 0.462237294,43 1.03164134,43 L81.9683587,43 C82.5377627,43 83,43.4860003 83,44.0846767 L83,49.9153233 C83,50.5139997 82.5377627,51 81.9683587,51"
                                        id="Fill-6" fill="#B2BDC6" mask="url(#mask-6)" />
                                    <polygon id="Fill-7" fill="#B2BDC6" mask="url(#mask-6)"
                                        points="12 38 25 38 25 7 12 7" />
                                    <polygon id="Fill-8" fill="#E7EBEE" mask="url(#mask-6)"
                                        points="20 15 62 15 62 12 20 12" />
                                    <polygon id="Fill-9" fill="#E7EBEE" mask="url(#mask-6)"
                                        points="20 21 62 21 62 18 20 18" />
                                    <polygon id="Fill-10" fill="#E7EBEE" mask="url(#mask-6)"
                                        points="20 29 62 29 62 26 20 26" />
                                </g>
                            </g>
                        </g>
                    </g>
                </g>
            </g>
        </g>
    </g>
</svg>