<svg xmlns="http://www.w3.org/2000/svg" width="160" height="160" viewBox="0 0 160 160">
    <script xmlns="" />
    <g fill="none" fill-rule="evenodd">
        <path
            d="M155.08 5.01a4.56 4.56 0 0 1 .72 9.1c-35.86 2.86-58.65 25.65-68.86 69.43-11.06 47.4-36.9 73.24-77.02 76.45a4.56 4.56 0 0 1-.72-9.1c35.86-2.86 58.65-25.65 68.86-69.43 11.06-47.4 36.9-73.24 77.02-76.45Zm-63.81 0a4.56 4.56 0 0 1 .7 9.1c-17.66 1.35-29.9 13.6-37 37.77-8.1 27.5-23.2 42.6-45.06 44.28a4.57 4.57 0 0 1-.7-9.09c17.65-1.36 29.9-13.6 37-37.77 8.1-27.5 23.2-42.6 45.06-44.29Zm63.82 63.83a4.57 4.57 0 0 1 .7 9.09c-17.65 1.36-29.9 13.6-37 37.77-8.1 27.5-23.2 42.6-45.06 44.29a4.56 4.56 0 0 1-.7-9.1c17.66-1.35 29.9-13.6 37-37.77 8.1-27.5 23.2-42.6 45.06-44.28Z"
            fill="#2B3F2E" />
        <path
            d="M150.08.01a4.56 4.56 0 0 1 .72 9.1c-35.86 2.86-58.65 25.65-68.86 69.43-11.06 47.4-36.9 73.24-77.02 76.45a4.56 4.56 0 0 1-.72-9.1c35.86-2.86 58.65-25.65 68.86-69.43 11.06-47.4 36.9-73.24 77.02-76.45Zm-63.81 0a4.56 4.56 0 0 1 .7 9.1c-17.66 1.35-29.9 13.6-37 37.77-8.1 27.5-23.2 42.6-45.06 44.28a4.57 4.57 0 0 1-.7-9.09c17.65-1.36 29.9-13.6 37-37.77C49.32 16.8 64.42 1.7 86.28.01Zm63.82 63.83a4.57 4.57 0 0 1 .7 9.09c-17.65 1.36-29.9 13.6-37 37.77-8.1 27.5-23.2 42.6-45.06 44.29a4.56 4.56 0 0 1-.7-9.1c17.66-1.35 29.9-13.6 37-37.77 8.1-27.5 23.2-42.6 45.06-44.28Z"
            fill="#D9EDDC" />
    </g>
</svg>